<?xml version="1.0" encoding="iso-8859-1"?>
<!-- Uploaded to: SVG Repo, www.svgrepo.com, Generator: SVG Repo Mixer Tools -->
<!DOCTYPE svg PUBLIC "-//W3C//DTD SVG 1.1//EN" "http://www.w3.org/Graphics/SVG/1.1/DTD/svg11.dtd">
<svg fill="#000000" height="800px" width="800px" version="1.1" id="Capa_1" xmlns="http://www.w3.org/2000/svg" xmlns:xlink="http://www.w3.org/1999/xlink" 
	 viewBox="0 0 176.329 176.329" xml:space="preserve">
<g>
	<path d="M139.905,18.513L102.193,6.401c-0.419-1.151-1.513-1.978-2.81-1.978c-1.038,0-1.952,0.527-2.49,1.328H38.68V5
		c0-2.761-2.238-5-5-5s-5,2.239-5,5v5.751v36.78v5.751c0,2.761,2.238,5,5,5s5-2.239,5-5v-0.751h11.425V70.68h-3.632v19.345h3.632
		v81.304c0,2.761,2.238,5,5,5h22.624c2.762,0,5-2.239,5-5V90.025h3.633V70.68h-3.633V52.531h14.164
		c0.539,0.801,1.453,1.328,2.49,1.328c1.297,0,2.391-0.827,2.81-1.979l37.715-12.124c4.63-1.488,7.741-5.757,7.741-10.621
		C147.649,24.27,144.537,20.001,139.905,18.513z M38.68,15.751h57.703v26.78H38.68V15.751z M72.729,166.329H60.105V90.025h12.624
		V166.329z M72.729,70.68H60.105V52.531h12.624V70.68z M136.847,30.236l-34.464,11.079V16.966l34.464,11.068
		c0.479,0.154,0.802,0.596,0.802,1.101S137.327,30.082,136.847,30.236z"/>
</g>
</svg>