<svg id="ePM2lexqXGD1" xmlns="http://www.w3.org/2000/svg" xmlns:xlink="http://www.w3.org/1999/xlink" viewBox="0 0 800 800" shape-rendering="geometricPrecision" text-rendering="geometricPrecision"><rect width="2793.291215" height="1813.575281" rx="0" ry="0" transform="translate(-1333.178737-438.245451)" fill="#191413" stroke="#191413"/><path d="M386.07,80.3555l-275,158.270697v317.255l275,158.984303l275-158.984303v-317.255ZM521.423451,314.533059L390.363098,238.622745v-146.806978L648.892793,241.488674ZM254.296049,326.708082l127.469343,73.766046v146.806978L254.296049,473.519663Zm136.067049,73.05129l127.469343-73.766046v146.806978L390.363098,547.281106Zm-4.298163-7.162178L258.595593,319.550508l127.469342-73.766046l127.469343,73.766046Zm-4.298162-153.977558L250.706421,314.529951L123.237078,241.483265L381.766773,91.810358Zm-135.35345,83.072838v151.825232L118.93247,547.283753v-299.357325Zm3.578809,158.995812l131.77395,75.914919v146.806977L123.236388,553.725765Zm140.371657,75.910315l131.77395-75.914918l127.469343,73.766045L390.363789,703.409031Zm135.35345-83.072837v-151.825233l127.469343-73.766046v298.63221Z" transform="translate(13.93 2.3895)" fill="#fff" stroke="#fff" stroke-width="25" stroke-linejoin="round"/></svg>
