<svg id="ei7PQjFJ96d1" xmlns="http://www.w3.org/2000/svg" xmlns:xlink="http://www.w3.org/1999/xlink" viewBox="0 0 700 700" shape-rendering="geometricPrecision" text-rendering="geometricPrecision" style="background-color:#404040"><g><path d="M386.07,80.3555l-275,158.270697v317.255l275,158.984303l275-158.984303v-317.255ZM521.423451,314.533059L390.363098,238.622745v-146.806978L648.892793,241.488674ZM254.296049,326.708082l127.469343,73.766047v146.806977L254.296049,473.519663Zm136.067049,73.051291l127.469343-73.766046v146.806977L390.363098,547.281106Zm-4.298163-7.162178L258.595593,319.550508l127.469342-73.766047l127.469343,73.766047Zm-4.298162-153.977558L250.706421,314.529951L123.237078,241.483265L381.766773,91.810358ZM246.413323,321.692474v151.825232L118.93247,547.283753v-299.357324Zm3.57881,158.995812l131.77395,75.914919v146.806977L123.236388,553.725765Zm140.371656,75.910315l131.773951-75.914918l127.469343,73.766046L390.363789,703.409031Zm135.353451-83.072837v-151.825233l127.469343-73.766046v298.63221Z" transform="translate(-36.07-47.6105)" fill="#fff" stroke="#fff" stroke-width="25"/></g></svg>
