<svg id="eY1GB5SUFC21" xmlns="http://www.w3.org/2000/svg" xmlns:xlink="http://www.w3.org/1999/xlink" viewBox="0 0 600 600" shape-rendering="geometricPrecision" text-rendering="geometricPrecision"><path d="M350,80.3555l-238.93,137.51v275.64L350,631.6355l238.93-138.13v-275.64Zm117.6,203.46l-113.87-65.953v-127.55l224.62,130.04Zm-232.09,10.578l110.75,64.09v127.55l-110.75-64.086Zm118.22,63.469l110.75-64.09v127.55l-110.75,64.711Zm-3.7344-6.2227l-110.75-63.465l110.75-64.09l110.75,64.09Zm-3.7344-133.78l-113.87,65.953-110.75-63.465l224.62-130.04Zm-117.6,72.176v131.91l-110.76,64.09v-260.09Zm3.1094,138.14l114.49,65.957v127.55l-224.62-130.05Zm121.96,65.953l114.49-65.957l110.75,64.09-225.24,129.42Zm117.6-72.176v-131.91l110.75-64.09v259.46Z" transform="translate(-50-55.9955)" fill="#0e0e0e" stroke="#0e0e0e" stroke-width="25" stroke-linecap="round" stroke-linejoin="round" stroke-miterlimit="600"/></svg>
