 <!DOCTYPE svg PUBLIC "-//W3C//DTD SVG 1.1//EN" "http://www.w3.org/Graphics/SVG/1.1/DTD/svg11.dtd">
<svg id="add8bf70-28ee-432c-9f5b-1e2ce00c1bfe" data-name="Layer 1" xmlns="http://www.w3.org/2000/svg" width="865.76" height="682.89" viewBox="0 0 865.76 682.89">
<defs>
<style xmlns="http://www.w3.org/1999/xhtml">*, ::after, ::before { box-sizing: border-box; }
img, svg { vertical-align: middle; }
</style>
<style xmlns="http://www.w3.org/1999/xhtml">*, body, html { -webkit-font-smoothing: antialiased; }
img, svg { max-width: 100%; }
</style>
</defs>
<polygon points="730.33 474.58 797.23 613.87 807.7 613.87 747.42 463.92 730.33 474.58" fill="#d8d8d8"/>
<rect x="796.9" y="522.12" width="1.69" height="31.14" fill="#d8d8d8"/>
<path d="M797.18,523.52a10.62,10.62,0,1,1,10.62-10.61A10.62,10.62,0,0,1,797.18,523.52Zm0-19.54a8.93,8.93,0,1,0,8.93,8.93A8.94,8.94,0,0,0,797.18,504Z" fill="#d8d8d8"/>
<rect x="809.49" y="472.34" width="1.69" height="81.48" fill="#d8d8d8"/>
<path d="M810.33,473.19a9.61,9.61,0,1,1,9.61-9.61A9.62,9.62,0,0,1,810.33,473.19Zm0-17.53a7.92,7.92,0,1,0,7.92,7.92A7.92,7.92,0,0,0,810.33,455.66Z" fill="#d8d8d8"/>
<rect x="823.13" y="504.12" width="1.69" height="49.7" fill="#d8d8d8"/>
<path d="M824,505a9.61,9.61,0,1,1,9.61-9.61A9.62,9.62,0,0,1,824,505Zm0-17.53a7.92,7.92,0,1,0,7.92,7.92A7.93,7.93,0,0,0,824,487.44Z" fill="#d8d8d8"/>
<rect x="579.19" y="602.78" width="83.38" height="11.09" rx="5.54" fill="#ccc"/>
<path d="M90.81,548C90,541,65,465.59,58.19,445c-1-3-2.14-6-3.34-9-15.6-38.51,4.47-41.25,4.47-41.25s15.79-6.53,27.06,24.6A86,86,0,0,1,89,427.92c4.07,16.55,21.77,90.29,21.77,121.9Z" fill="#d8d8d8"/>
<path d="M104.79,406.45a24.69,24.69,0,0,1,4.43-5.4c8.16-7.34,21.35-3.62,24.17,7a29.51,29.51,0,0,1,.88,8.33,16.74,16.74,0,0,1-.19,2c-1.82,11.43-18.87,117.78-27.42,131.47l-11.31,1.36,4.8-129.12A31.83,31.83,0,0,1,104.79,406.45Z" fill="#d8d8d8"/>
<path d="M111.43,517.83c2.45-3.66,4.8-7.4,6.92-11.26,30.34-55.21,47.08-42.36,47.08-42.36s11.3,7-5,24.59c0,0-45.21,54.69-49.74,61l-12.18-1.1A92.55,92.55,0,0,1,111.43,517.83Z" fill="#d8d8d8"/>
<path d="M80,546,45.36,503.28c-3.38-4.18-6.94-8.2-10.62-12.12-6.5-6.9-17.44-20.79-7.37-27.13a12.56,12.56,0,0,1,13.5.29c7.29,4.74,20.86,17.25,39.2,50.09,1.11,2,2.14,4,3.12,6.05L95.35,546Z" fill="#d8d8d8"/>
<rect x="172.82" y="45.48" width="506.01" height="306.11" rx="27.09" fill="#d8d8d8"/>
<rect x="523.44" y="77.38" width="107.78" height="241.21" fill="#231f20" opacity="0.05"/>
<rect x="562.57" y="133.84" width="57.1" height="18.6" rx="9.3" fill="#ccc"/>
<rect x="562.57" y="158.86" width="57.1" height="18.6" rx="9.3" fill="#ccc"/>
<rect x="562.57" y="184.63" width="57.1" height="18.6" rx="9.3" fill="#ccc"/>
<rect x="223.84" y="142.18" width="106.49" height="112.91" fill="#231f20" opacity="0.05"/>
<rect x="375.89" y="77.38" width="106.49" height="241.21" fill="#231f20" opacity="0.05"/>
<rect x="203.31" y="87.65" width="87.25" height="32.72" rx="16.36" fill="#231f20" opacity="0.05"/>
<path d="M739.15,301.15c10.45-6.61,33.75-17.45,55.62-.74a31.65,31.65,0,0,0,3.13,2.16c2.89,1.69,10.69,10.87-4.31,59.5L774,432.18c-.14.5-.27,1-.39,1.51-1.15,4.82-9.45,35.51-35.51,40.33a36.77,36.77,0,0,1-6.71.56H611.06l26.51-57.86a40.42,40.42,0,0,1,6.39-9.85l86.62-98.38A39.57,39.57,0,0,1,739.15,301.15Z" fill="#d8d8d8"/>
<rect x="642.8" y="486.83" width="102.05" height="9.47" fill="#d8d8d8"/>
<rect x="320.71" y="133.84" width="49.4" height="25.02" rx="2.57" fill="#ccc"/>
<rect x="314.3" y="90.57" width="107.14" height="0.56" fill="#ccc"/>
<rect x="314.3" y="99.56" width="107.14" height="0.56" fill="#ccc"/>
<rect x="314.3" y="107.04" width="107.14" height="0.56" fill="#ccc"/>
<rect x="315.05" y="286.56" width="44.16" height="0.56" fill="#ccc"/>
<rect x="315.05" y="295.54" width="44.16" height="0.56" fill="#ccc"/>
<rect x="315.05" y="303.03" width="44.16" height="0.56" fill="#ccc"/>
<rect x="598.82" y="211.29" width="18.6" height="0.56" fill="#ccc"/>
<rect x="598.82" y="220.27" width="18.6" height="0.56" fill="#ccc"/>
<rect x="598.82" y="227.76" width="18.6" height="0.56" fill="#ccc"/>
<path d="M579.72,103.11l-.37-.11c-1-.24-2.07-.5-3.12-.72a.9.9,0,0,1-.77-.78,18.62,18.62,0,0,0-2.64-6.36.9.9,0,0,1,0-1.1c.58-.9,1.13-1.81,1.7-2.71.16-.24.17-.39,0-.6-1-1-2-2-3-3a.41.41,0,0,0-.61-.07c-.84.55-1.71,1-2.54,1.61a1.13,1.13,0,0,1-1.44,0A17.23,17.23,0,0,0,561,86.8a1.32,1.32,0,0,1-1.21-1.22c-.18-1-.47-2.07-.71-3.1h-5c-.26,1.15-.54,2.28-.78,3.41a1,1,0,0,1-.84.84,18.55,18.55,0,0,0-6.31,2.63.9.9,0,0,1-1.1,0c-.88-.57-1.8-1.1-2.67-1.68a.47.47,0,0,0-.72.1c-.52.56-1.07,1.08-1.62,1.63L538.45,91c.63,1,1.22,2,1.85,3a1.07,1.07,0,0,1,0,1.31,17.49,17.49,0,0,0-2.53,6,1.16,1.16,0,0,1-1,1c-1.09.22-2.16.5-3.27.75,0,1.61,0,3.18,0,4.76,0,.11.21.28.35.32,1,.25,2,.5,3.07.71a1,1,0,0,1,.86.88,18.06,18.06,0,0,0,2.57,6.18,1.07,1.07,0,0,1,0,1.31c-.63,1-1.22,1.94-1.8,2.86l3.56,3.58c1-.61,2-1.23,3-1.88a.86.86,0,0,1,1,0,18.93,18.93,0,0,0,6.49,2.71.83.83,0,0,1,.7.73c.23,1,.5,2.1.73,3.16.06.27.15.37.44.36,1.43,0,2.87,0,4.3,0,.28,0,.38-.09.44-.35.23-1.06.5-2.11.73-3.17a.87.87,0,0,1,.75-.75,18.47,18.47,0,0,0,6.4-2.66.87.87,0,0,1,1.06,0l2.43,1.52.58.35,3.57-3.54c-.59-.94-1.17-1.93-1.81-2.88a1.07,1.07,0,0,1,0-1.35,17.54,17.54,0,0,0,2.5-6,1.23,1.23,0,0,1,1.13-1.13c1.07-.2,2.13-.48,3.2-.73Z" fill="#bcbec0"/>
<path d="M620.4,266.94s28.33-23.5,68.89-12.07c0,0,27.68,4.35,47.64,59.07,0,0-7.08,11.27-35.73,15.46l13.2,32.83L630,366.74l-4.46-40.56s-17.07,1.93-30.26-14.17C595.29,312,601.82,281.47,620.4,266.94Z" fill="#178792" data-primary="true"/>
<polygon points="278.11 562.99 278.19 492.25 314.84 487.43 300.71 562.99 278.11 562.99" fill="#f9b499"/>
<path d="M273.79,560.54H308l-3.72,33.35s25.24.13,28.62,12.36H270.38Z" fill="#178792" data-primary="true"/>
<rect x="206.78" y="606.25" width="68.67" height="7.08" fill="#0f0f0f" data-secondary="true"/>
<rect x="270.38" y="606.25" width="62.53" height="7.08" fill="#0f0f0f" data-secondary="true"/>
<polygon points="226.44 487.43 218.99 562.99 243.47 562.99 265.29 491.69 226.44 487.43" fill="#f9b499"/>
<polygon points="319.64 260.91 253 260.91 253 279.5 319.64 278.29 319.64 260.91" fill="#f9b499"/>
<path d="M320.06,141.49c0,14.47-9.15,27.35-21.74,26.83-12-.5-21.75-12.36-21.75-26.83s9.74-26.19,21.75-26.19S320.06,127,320.06,141.49Z" fill="#f9b499"/>
<path d="M283.18,142c0,4.92-3.41,9.39-7.62,9.39s-7.63-4.47-7.63-9.39,3.41-8.9,7.63-8.9S283.18,137.08,283.18,142Z" fill="#f9b499"/>
<path d="M273.28,174.47l.49-23.57s-9.6-4.28-4.16-14.47c0,0,23.49,6.84,33.67-17.83,0,0,16.13,10.48,16.71,25,0,0-1.13,20.77-18.46,23.85a19,19,0,0,1-11.77-1.82s4.42,6.43,14.13,6.64a40.35,40.35,0,0,1,8.56,1c10.85,2.59,15.75,7.7,15.75,7.7,1.27-58-23.14-69.17-23.14-69.17-35.35-18.06-57.23,31.79-57.23,31.79-32.29,62.56-78.58,58-78.58,58s32.56,76.3,80.85,62.78Z" fill="#0f0f0f" data-secondary="true"/>
<path d="M302.75,172.16v5.45S296.7,188,273.28,182.2l.49-31.3a8.82,8.82,0,0,0,4.12-.42,25.61,25.61,0,0,0,11.87,15.1S294.47,172,302.75,172.16Z" fill="#f9b499"/>
<path d="M326.4,227.59c2.41,8.45,5.07,36,5.07,36l-81.37.73v-16s-22.45-2.9-38.87-15.77c0,0,19.94-55.47,60.51-59,0,0,43.05-7.68,56.46,7.37l29.67,17.62s-13.36,20.77-10.63,36.86Z" fill="#178792" data-primary="true"/>
<path d="M253,271.05v-6.76l67.85-.63S309.26,272.5,253,271.05Z" fill="#231f20" opacity="0.1"/>
<path d="M178.88,473.13,253,279.5l66.64-1.21L372,467.82S283.66,527.22,178.88,473.13Z" fill="#0f0f0f" data-secondary="true"/>
<path d="M213.55,382.54c38.67-9,54.42,2.69,54.42,2.69s19.61,11.51-6.27,45.24c0,0-27.73,35.58-54.92,54.66" fill="none" stroke="#000" stroke-miterlimit="10" opacity="0.2"/>
<path d="M224.3,354.48s45.12-13.17,61.05-43.6c0,0,7.49-11.61,1.57-32" fill="none" stroke="#000" stroke-miterlimit="10" opacity="0.2"/>
<path d="M321.3,284.29s-26.76,27.53-17.05,66.37,43.27,28.49,43.27,28.49" fill="none" stroke="#000" stroke-miterlimit="10" opacity="0.2"/>
<path d="M246.27,494.37S300,403.06,350.4,389.57" fill="none" stroke="#000" stroke-miterlimit="10" opacity="0.2"/>
<path d="M278.11,495.87s42.75-81.48,87.77-50.29" fill="none" stroke="#000" stroke-miterlimit="10" opacity="0.2"/>
<path d="M214.13,560.54h37.34l-6.76,31.87s28.33-1.61,30.74,13.84H206.78Z" fill="#178792" data-primary="true"/>
<polygon points="488.67 504.42 538.74 454.46 568.07 476.96 504.65 520.4 488.67 504.42" fill="#f9b499"/>
<polygon points="590.17 602.78 616.96 537.31 584.88 518.93 569.26 594.2 590.17 602.78" fill="#f9b499"/>
<path d="M215.92,235.82S187.41,297,165.07,332.35c0,0-24.24,28.68-42.81,36a2.3,2.3,0,0,0-1.45,1.58c-.19.78.09,1.58,2.21,1.32,0,0,1.61,3.64,15.13.05S167,353.38,167,353.38s3.05-1.77,3.7,2.9c0,0,3,18.77,8.21,15.51,0,0-4-17.06-2-22.08a29.33,29.33,0,0,0,2-13.54S220.13,287,244,247.12C244,247.12,227.14,243.82,215.92,235.82Z" fill="#f9b499"/>
<path d="M156.24,362a29.08,29.08,0,0,1-17.12,17.16s-1.29-.5,1.13-2.43c0,0,4.19-5.3,5.15-8.2" fill="#f9b499"/>
<path d="M362,200.67,381.23,210s30.48-43.09,36.21-51.57c0,0,6.88-13.07,2.75-27.51,0,0,6.65-.92,6.65,12.61,0,0,9-3.29,18.59-17.79a2.16,2.16,0,0,1,2.91-.66c.77.51,1.33,1.63.88,4a12.2,12.2,0,0,1-3,5.87l-7.5,8.36s8.41,1.48,10.62,7.16c0,0-.77,10.49-7.41,10,0,0-1.61,7-13.76,6.71,0,0-19.31,52.3-34.73,68.14a11.6,11.6,0,0,1-8.72,3.53c-5.39-.21-15.28-2.36-31.73-11.45l-.57-2.8a23.34,23.34,0,0,1,8.88-23.5c.42-.31.67-.47.67-.47" fill="#f9b499"/>
<path d="M354.41,228.19s-3.67,8.51-7.17,7.2c0,0-4.25-11.9,10.63-36.86l4.14,2.14S349.71,223.6,354.41,228.19Z" fill="#178792" data-primary="true"/>
<path d="M354.41,228.19s-3.67,8.51-7.17,7.2c0,0-4.25-11.9,10.63-36.86l4.14,2.14S349.71,223.6,354.41,228.19Z" opacity="0.2"/>
<path d="M437.47,147.63a27.57,27.57,0,0,1-3.05,6.51c-.17.25-.38.51-.56.74a1.83,1.83,0,0,0-.34.63,1.59,1.59,0,0,0,.17,1.32c.4.73,1.64.29,2.55-.28a9.47,9.47,0,0,0,2.47-2.31,30.22,30.22,0,0,0,2.09-2.82,23.7,23.7,0,0,0,1.73-3.07,20.66,20.66,0,0,0,1.29-3.31,17,17,0,0,1-.83,3.5,23.28,23.28,0,0,1-1.53,3.28,23.53,23.53,0,0,1-2,3,10.19,10.19,0,0,1-2.69,2.58,5.59,5.59,0,0,1-1.81.73,2.27,2.27,0,0,1-1.12,0,1.7,1.7,0,0,1-.93-.75,2.49,2.49,0,0,1-.21-2.11,2.58,2.58,0,0,1,.54-.9c.21-.23.4-.41.58-.65a23.92,23.92,0,0,0,1.93-2.93C436.35,149.73,436.9,148.68,437.47,147.63Z" fill="#eda994"/>
<path d="M436.86,156.84a2,2,0,0,0-.13,2.31,1.66,1.66,0,0,0,2,.44,6.2,6.2,0,0,0,2-1.28,13.73,13.73,0,0,0,1.67-1.87,29.4,29.4,0,0,0,5-9,15.63,15.63,0,0,1-1.4,5.08,23.07,23.07,0,0,1-2.78,4.52,8.41,8.41,0,0,1-4.28,3.28,2.72,2.72,0,0,1-1.47,0,1.94,1.94,0,0,1-1.16-1A2.19,2.19,0,0,1,436.86,156.84Z" fill="#eda994"/>
<path d="M440.81,158.89a5,5,0,0,0,.63,1,1.1,1.1,0,0,0,.33.26c.17.09.4.17.68.33a1.13,1.13,0,0,1-.77.44,1.14,1.14,0,0,1-1-.34,1.2,1.2,0,0,1-.31-1A1.12,1.12,0,0,1,440.81,158.89Z" fill="#eda994"/>
<path d="M146.45,357a8.2,8.2,0,0,1-2,2.83,27.58,27.58,0,0,1-2.67,2.27,47.73,47.73,0,0,1-5.92,3.71,69.56,69.56,0,0,1-6.29,3c-1.08.43-2.14.89-3.23,1.29s-2.18.79-3.29,1.14c2-1.1,4.14-2.08,6.2-3.13s4.12-2.07,6.14-3.17,4-2.21,5.95-3.46a32.2,32.2,0,0,0,2.79-2A9.36,9.36,0,0,0,146.45,357Z" fill="#eda994"/>
<ellipse cx="630.01" cy="229.45" rx="20.4" ry="31.46" fill="#f9b499"/>
<ellipse cx="654.19" cy="226.87" rx="6.34" ry="7.51" fill="#f9b499"/>
<path d="M657.4,233.35s2.87-1.76,3.13-6.48a7,7,0,0,0-4.43-7.16s-3.76-1.67-7,2.62c0,0-17.21-9.47-19.14-15.75a39.28,39.28,0,0,1-9,5.16,16.22,16.22,0,0,0-9.64,9.08,13.53,13.53,0,0,0-.81,2.79s-20.25-10.13-3-21.12c0,0-10.83-.75-7.47-14.57,0,0,1.87-10.28,16.81-6.08,0,0,6.73-16,20.93-4.39,0,0,7.84,3.74,15.32,19.43,0,0,23.53-1.87,22.41,24.66,0,0-7.47,27.65-13.07,20.93l-1.74-4.42a12.44,12.44,0,0,0-3.27-4.7h0" fill="#0f0f0f" data-secondary="true"/>
<path d="M633.92,254.87l5.79,13.68s22.86,8.37,26.72-15.13l-5.76-15.37a11.71,11.71,0,0,0-5.83-6.2h-8.37Z" fill="#f9b499"/>
<path d="M625.55,326.18l1.21,11c-23.58,42.05-39.36,35-39.36,35-21.89-5.31-2.74-69.53-2.74-69.53L592.71,274l5.15-30.5s4.46-9.62,10.06-4.1c0,0,3.82-1.41,4.2,2.92,0,0,4.87-2.2,4.41,1.91,0,0,8.3-1.69,6,17.13a1.7,1.7,0,0,1-2.23,1.42c-1.17-.45-2.62-1.81-3.75-5.52,0,0,.16,12.08-8.69,14.81,0,0-1.5,40.18-2.6,48.72C605.24,320.81,616.69,327.79,625.55,326.18Z" fill="#f9b499"/>
<path d="M646.88,328.92a12.63,12.63,0,1,0,12.63,12.63A12.62,12.62,0,0,0,646.88,328.92Zm0,19.47a6.84,6.84,0,1,1,6.84-6.84A6.84,6.84,0,0,1,646.88,348.39Z" fill="#178792" data-primary="true"/>
<path d="M646.88,355.31H618.65V324.89a96.69,96.69,0,0,0,12.35,1,94.89,94.89,0,0,0,15.88-1Z" fill="#178792" data-primary="true"/>
<path d="M792.83,299l-14,59.38c-1.53,6.47-2.7,13-3.6,19.59-11.59,84.25-62.58,87.53-76.55,86.81-3.74-.19-7.48-.21-11.22-.1-15.88.45-52.54,1.25-71.71-.24l-4.65,10.14H730.33s25.24,2.69,38.94-28.35l26.66-92.05s12.94-38.33,2.57-51.2Z" fill="#231f20" opacity="0.2"/>
<polygon points="435.61 285.94 480.68 361.27 606.55 361.27 568.89 285.94 435.61 285.94" fill="#0f0f0f" data-secondary="true"/>
<polygon points="439.8 281.11 435.61 285.94 568.89 285.94 606.55 361.27 611.06 356.76 573.39 281.11 439.8 281.11" fill="#0f0f0f" data-secondary="true"/>
<polygon points="439.9 281.11 435.71 285.94 568.99 285.94 606.65 361.27 611.16 356.76 573.5 281.11 439.9 281.11" opacity="0.2"/>
<polygon points="546.35 338.41 539.69 361.27 536.37 372.65 499.03 372.65 511.91 338.41 546.35 338.41" fill="#0f0f0f" data-secondary="true"/>
<polygon points="549.57 361.27 546.35 338.41 539.69 361.27 549.57 361.27" opacity="0.2"/>
<path d="M590.3,384.77l-58.43,62.29s-2.9-6-7.41,0l-16.8,17.79a4.29,4.29,0,0,0-.58,5.12c5.13,8.76,21.69,35.36,36.82,41.73a6,6,0,0,0,6.47-1.22l21.74-21.09s2.25-.64-.65-4.18l50.46-52.64s62.42,19.11,84.2,6.31c.36-.21.72-.43,1.1-.63,3.42-1.81,26.19-15.48,16.35-53.48Z" fill="#0f0f0f" data-secondary="true"/>
<path d="M596.86,462.28l-16.18,65.1s-5.16-1.93-6.44,5.15l-6.76,23.82s-1,5.47,7.72,8.69c0,0,35.41,20.29,55,4.83l6.12-24.14s-1-5.47-3.86-5.47l31.87-101.09-42.18-10Z" fill="#0f0f0f" data-secondary="true"/>
<path d="M790,551.6h44.18s11.35,21.73,13.45,38.49a22.15,22.15,0,0,1-6.41,18.82,23.47,23.47,0,0,1-8,5H787.31S758.34,594.82,790,551.6Z" fill="#d8d8d8"/>
<path d="M790,551.6h44.18s11.35,21.73,13.45,38.49a22.15,22.15,0,0,1-6.41,18.82,23.47,23.47,0,0,1-8,5H787.31S758.34,594.82,790,551.6Z" opacity="0.2"/>
<rect x="56.47" y="543.75" width="77.76" height="68.95" fill="#d8d8d8"/>
<rect x="56.47" y="543.75" width="77.76" height="68.95" opacity="0.2"/>
<rect x="56.47" y="553.3" width="68.67" height="1.69" fill="#fff"/>
<path d="M732.07,318.58l11.82,35.81s6.14,16.49-12.67,18.26H620.41s-11.45-5.38-4.5-9.27c0,0-4.37-4.21.46-6.14,0,0-4.18-4.18.32-5.79,0,0-1.75-3.07,0-4.79a2.64,2.64,0,0,1,3.51-.09c2.23,1.82,8.08,5.64,18.09,6,0,0-11.1-12.07-3.06-9.49,0,0,24.31,11.59,26.24,14.64,0,0,6.44.49,8.21,0s34.26-7.44,40.71-5.53L701.2,329.4S724.14,326.27,732.07,318.58Z" fill="#f9b499"/>
<path d="M601.64,243.46a6.3,6.3,0,0,1,1-1.68,7.17,7.17,0,0,1,1.4-1.35,5.86,5.86,0,0,1,1.75-.92,3.35,3.35,0,0,1,2-.07,9.1,9.1,0,0,0-1.66.78,16.11,16.11,0,0,0-1.48,1C603.65,241.94,602.73,242.73,601.64,243.46Z" fill="#eda994"/>
<path d="M607.76,244.26a3.67,3.67,0,0,1,.71-1.23,5.27,5.27,0,0,1,1-1,5,5,0,0,1,1.3-.61,2.68,2.68,0,0,1,1.46,0c-.83.51-1.48,1-2.19,1.45A15.08,15.08,0,0,1,607.76,244.26Z" fill="#eda994"/>
<path d="M612.27,246.52a5,5,0,0,1,1.59-2.34,4.83,4.83,0,0,1,1.26-.75,1.69,1.69,0,0,1,1.49,0,3.26,3.26,0,0,0-1.12.66l-1,.83A12.71,12.71,0,0,1,612.27,246.52Z" fill="#eda994"/>
<path d="M616.83,249.09a26.84,26.84,0,0,1,.09,4.38l-.1,2.15a13.12,13.12,0,0,0,0,2.17,4.46,4.46,0,0,1-.79-2.12,11.25,11.25,0,0,1-.11-2.24A12.85,12.85,0,0,1,616.83,249.09Z" fill="#eda994"/>
<path d="M615.91,363.38a9.27,9.27,0,0,0,2,.32l2,.12c.67.05,1.34.08,2,.15a13.65,13.65,0,0,1,2.06.3,10.62,10.62,0,0,1-4.14.55,9.35,9.35,0,0,1-2.08-.36A3.65,3.65,0,0,1,615.91,363.38Z" fill="#eda994"/>
<path d="M616.38,357.32a9.15,9.15,0,0,0,2,.31l2,.13c.67,0,1.34.08,2,.14a16.78,16.78,0,0,1,2.06.3,10.62,10.62,0,0,1-4.14.56,9.85,9.85,0,0,1-2.08-.36A3.68,3.68,0,0,1,616.38,357.32Z" fill="#eda994"/>
<rect x="449.02" y="152.44" width="60.95" height="15.72" rx="7.86" fill="#ccc"/>
<path d="M412.43,139.18A11.76,11.76,0,1,0,392,147.09l2.51,2.74,6.18,7.11,7.09-8.39h0A11.73,11.73,0,0,0,412.43,139.18Z" fill="#bcbec0"/>
<circle cx="401.04" cy="139.28" r="4.08" fill="#231f20" opacity="0.2"/>
<path d="M27.37,464c5.87,5.73,11.47,11.75,16.85,18s10.56,12.59,15.48,19.17a242.79,242.79,0,0,1,13.78,20.44,127.28,127.28,0,0,1,10.75,22.16c-1.71-3.74-3.55-7.39-5.57-11s-4.12-7.06-6.31-10.51-4.47-6.85-6.82-10.19-4.73-6.67-7.19-9.94-4.93-6.53-7.46-9.74-5.09-6.41-7.67-9.59-5.2-6.33-7.85-9.45S30.05,467.13,27.37,464Z" opacity="0.2"/>
<path d="M59.32,394.49q1.84,4.51,3.56,9.09t3.41,9.14q3.3,9.18,6.4,18.43Q78.9,449.66,84,468.52c1.66,6.29,3.27,12.6,4.72,19s2.76,12.72,3.85,19.15,2,12.88,2.59,19.36,1.08,10.2.62,16.69c.08-6.5-.63-10.16-1.45-16.6s-1.82-12.85-3-19.22c-2.5-12.73-5.54-25.36-8.92-37.9s-7.07-25-10.91-37.4q-2.88-9.32-5.95-18.56C63.52,406.8,61.42,400.65,59.32,394.49Z" opacity="0.2"/>
<path d="M120.41,397.29c-1.09,6.13-1.82,10.29-2.77,16.44s-2,12.3-2.85,18.46c-1.76,12.32-3.38,24.66-4.71,37-.61,6.2-1.29,12.38-1.74,18.58s-.85,12.41-1.29,18.62l-.37,9.32-.09,2.33c0,.78-.06,1.56,0,2.34l0,4.66-.06,4.67c0,.78,0,1.56,0,2.33l.06,2.34q.14,4.67.21,9.34c-.47-6.21-.95-12.44-1-18.67l-.09-4.68c0-.78,0-1.56,0-2.34l0-2.34.13-9.35c.41-12.47,1.37-24.92,2.65-37.33s3-24.75,5.11-37.05c1-6.15,2.13-12.28,3.32-18.4.6-3.06,1.24-6.11,1.88-9.16S119.68,400.32,120.41,397.29Z" opacity="0.2"/>
<path d="M163.75,463.45c-6.25,5.58-10.33,10.42-15.82,16.7a225.07,225.07,0,0,0-15.4,19.72l-1.81,2.55L129,505c-1.13,1.76-2.3,3.48-3.39,5.26-2.13,3.58-4.35,7.12-6.28,10.83a239.37,239.37,0,0,0-10.81,22.62q1-3,2.1-5.93l1.07-3c.17-.5.37-1,.58-1.47l.61-1.44,2.51-5.78c.39-1,.89-1.9,1.36-2.84l1.42-2.82c1.8-3.8,4-7.39,6.07-11.05.26-.46.53-.91.82-1.34l.85-1.33,1.71-2.65,1.71-2.66,1.81-2.58,1.83-2.56c.61-.86,1.21-1.72,1.87-2.55l3.85-5,4.05-4.83c1.35-1.61,2.8-3.13,4.2-4.7.7-.78,1.43-1.54,2.16-2.29l2.19-2.26c1.48-1.5,3-2.94,4.52-4.4s3.1-2.82,4.71-4.17A36,36,0,0,1,163.75,463.45Z" opacity="0.2"/>
<path d="M519.62,512.63l-24.2-24.2-20.95,26.21s-17.94-17.75-29-11.49l44.22,44.21Z" fill="#178792" data-primary="true"/>
<rect x="433.83" y="524.22" width="62.53" height="7.08" transform="translate(420.79 1229.82) rotate(-135)" fill="#0f0f0f" data-secondary="true"/>
<path d="M600.71,586.51l-32.27-11.43-7.63,32.68s-23.83-8.3-31.1,2.1l58.95,20.88Z" fill="#178792" data-primary="true"/>
<rect x="526.74" y="620.1" width="62.53" height="7.08" transform="translate(875.78 1397.79) rotate(-160.5)" fill="#0f0f0f" data-secondary="true"/>
<g opacity="0.2">
<path d="M531.87,447.06c1.1,2.07,2.27,4.09,3.56,6,.62,1,1.29,1.95,1.93,2.93l2,2.84a90,90,0,0,0,9.16,10.53c.84.8,1.62,1.68,2.51,2.43l2.62,2.31c.89.75,1.84,1.43,2.75,2.15l1.38,1.07,1.44,1,2.9,2,3,1.74c.5.29,1,.6,1.51.88l1.58.75,3.16,1.54A59.73,59.73,0,0,1,558.84,479l-1.49-.94L555.93,477c-.93-.72-1.9-1.39-2.81-2.14l-2.68-2.31c-.91-.74-1.71-1.61-2.57-2.42a81.39,81.39,0,0,1-9.08-10.8A68.46,68.46,0,0,1,531.87,447.06Z"/>
</g>
<g opacity="0.2">
<path d="M577.26,527.38a67.62,67.62,0,0,0,5.92,3.35c1,.51,2,1,3.05,1.5s2.06.94,3.1,1.37a83.41,83.41,0,0,0,12.84,4.29c2.17.63,4.41,1,6.62,1.46,2.23.29,4.46.68,6.72.82,1.13.08,2.25.23,3.38.25l3.4.05a29.51,29.51,0,0,0,3.39-.06l3.41-.15-3.39.41a29.79,29.79,0,0,1-3.4.29l-3.42.1c-1.14,0-2.28-.09-3.42-.12a67.6,67.6,0,0,1-6.82-.69c-1.13-.2-2.25-.43-3.37-.63s-2.24-.47-3.34-.76A76.42,76.42,0,0,1,589,534.3,63,63,0,0,1,577.26,527.38Z"/>
</g>
<rect x="606.55" y="380.41" width="12.1" height="222.37" fill="#ccc"/>
<rect x="606.55" y="380.41" width="12.1" height="222.37" opacity="0.2"/>
<rect x="443.82" y="372.65" width="358.7" height="12.12" rx="6.06" fill="#ccc"/>
<circle cx="779.43" cy="77.38" r="29.9" fill="#d8d8d8"/>
<g opacity="0.2">
<polygon points="797.03 80.34 776.61 80.34 776.61 58.51 778.87 58.51 778.87 78.09 797.03 78.09 797.03 80.34"/>
</g>
<circle cx="556.58" cy="106.23" r="9.36" fill="#231f20" opacity="0.2"/>
<path d="M646,249.09s-2.93,8.53-10,10.48l2.06,4.87A19.84,19.84,0,0,0,646,249.09Z" fill="#f7a48b"/>
<path d="M289.76,165.58s2.92,3.36,5.28,4.46c0,0-9.1-.22-14.71-13.83C280.33,156.21,284.55,163.12,289.76,165.58Z" fill="#f7a48b"/>
</svg>