<svg id="eqKjg5eol2J1" xmlns="http://www.w3.org/2000/svg" xmlns:xlink="http://www.w3.org/1999/xlink"
    viewBox="0 0 300 300" shape-rendering="geometricPrecision" text-rendering="geometricPrecision" width="300"
    height="300">
    <line x1="0" y1="-90" x2="0" y2="84.251107"
        transform="matrix(-.707107 0.707107 0.365218 0.365218 246.509214 119.965796)" fill="none" stroke="#000"
        stroke-width="10" />
    <line x1="0" y1="-90" x2="0" y2="84.251107"
        transform="matrix(-.707107-.707107-.365218 0.365218 53.490786 118.494193)" fill="none" stroke="#000"
        stroke-width="10" stroke-linejoin="round" />
    <line x1="0" y1="-90" x2="0" y2="84.251107"
        transform="matrix(-.707107-.707107-.365218 0.365218 244.409616 183.605406)" fill="none" stroke="#000"
        stroke-width="10" />
    <line x1="0" y1="-90" x2="0" y2="84.251107"
        transform="matrix(-.707107-.707107-.365218 0.365218 117.130396 183.605406)" fill="none" stroke="#000"
        stroke-width="10" />
    <line x1="0" y1="-90" x2="0" y2="84.251107"
        transform="matrix(-.707107-.707107-.365218 0.365218 180.770006 119.965796)" fill="none" stroke="#000"
        stroke-width="10" />
    <line x1="0" y1="-90" x2="0" y2="84.251107"
        transform="matrix(-.707107 0.707107 0.365218 0.365218 55.590384 182.133803)" fill="none" stroke="#000"
        stroke-width="10" stroke-linejoin="round" />
</svg>