<svg width="363" height="79" viewBox="0 0 363 79" fill="none" xmlns="http://www.w3.org/2000/svg">
<rect width="79" height="79" fill="#59A5FF"/>
<circle cx="39.5" cy="39.5" r="22.5" fill="white"/>
<path d="M143.468 25.92L136.148 54H127.868L123.388 35.52L118.748 54H110.468L103.348 25.92H110.668L114.708 46.36L119.708 25.92H127.228L132.028 46.36L136.108 25.92H143.468ZM145.538 42.8C145.538 40.5067 145.965 38.4933 146.818 36.76C147.698 35.0267 148.885 33.6933 150.378 32.76C151.871 31.8267 153.538 31.36 155.378 31.36C156.951 31.36 158.325 31.68 159.498 32.32C160.698 32.96 161.618 33.8 162.258 34.84V31.68H169.098V54H162.258V50.84C161.591 51.88 160.658 52.72 159.458 53.36C158.285 54 156.911 54.32 155.338 54.32C153.525 54.32 151.871 53.8533 150.378 52.92C148.885 51.96 147.698 50.6133 146.818 48.88C145.965 47.12 145.538 45.0933 145.538 42.8ZM162.258 42.84C162.258 41.1333 161.778 39.7867 160.818 38.8C159.885 37.8133 158.738 37.32 157.378 37.32C156.018 37.32 154.858 37.8133 153.898 38.8C152.965 39.76 152.498 41.0933 152.498 42.8C152.498 44.5067 152.965 45.8667 153.898 46.88C154.858 47.8667 156.018 48.36 157.378 48.36C158.738 48.36 159.885 47.8667 160.818 46.88C161.778 45.8933 162.258 44.5467 162.258 42.84ZM180.886 35.4C181.686 34.1733 182.686 33.2133 183.886 32.52C185.086 31.8 186.42 31.44 187.886 31.44V38.68H186.006C184.3 38.68 183.02 39.0533 182.166 39.8C181.313 40.52 180.886 41.8 180.886 43.64V54H174.046V31.68H180.886V35.4ZM212.196 42.48C212.196 43.12 212.156 43.7867 212.076 44.48H196.596C196.702 45.8667 197.142 46.9333 197.916 47.68C198.716 48.4 199.689 48.76 200.836 48.76C202.542 48.76 203.729 48.04 204.396 46.6H211.676C211.302 48.0667 210.622 49.3867 209.636 50.56C208.676 51.7333 207.462 52.6533 205.996 53.32C204.529 53.9867 202.889 54.32 201.076 54.32C198.889 54.32 196.942 53.8533 195.236 52.92C193.529 51.9867 192.196 50.6533 191.236 48.92C190.276 47.1867 189.796 45.16 189.796 42.84C189.796 40.52 190.262 38.4933 191.196 36.76C192.156 35.0267 193.489 33.6933 195.196 32.76C196.902 31.8267 198.862 31.36 201.076 31.36C203.236 31.36 205.156 31.8133 206.836 32.72C208.516 33.6267 209.822 34.92 210.756 36.6C211.716 38.28 212.196 40.24 212.196 42.48ZM205.196 40.68C205.196 39.5067 204.796 38.5733 203.996 37.88C203.196 37.1867 202.196 36.84 200.996 36.84C199.849 36.84 198.876 37.1733 198.076 37.84C197.302 38.5067 196.822 39.4533 196.636 40.68H205.196ZM229.524 31.44C232.084 31.44 234.138 32.2933 235.684 34C237.231 35.68 238.004 38 238.004 40.96V54H231.204V41.88C231.204 40.3867 230.818 39.2267 230.044 38.4C229.271 37.5733 228.231 37.16 226.924 37.16C225.618 37.16 224.578 37.5733 223.804 38.4C223.031 39.2267 222.644 40.3867 222.644 41.88V54H215.804V24.4H222.644V34.68C223.338 33.6933 224.284 32.9067 225.484 32.32C226.684 31.7333 228.031 31.44 229.524 31.44ZM252.917 54.32C250.731 54.32 248.757 53.8533 246.997 52.92C245.264 51.9867 243.891 50.6533 242.877 48.92C241.891 47.1867 241.397 45.16 241.397 42.84C241.397 40.5467 241.904 38.5333 242.917 36.8C243.931 35.04 245.317 33.6933 247.077 32.76C248.837 31.8267 250.811 31.36 252.997 31.36C255.184 31.36 257.157 31.8267 258.917 32.76C260.677 33.6933 262.064 35.04 263.077 36.8C264.091 38.5333 264.597 40.5467 264.597 42.84C264.597 45.1333 264.077 47.16 263.037 48.92C262.024 50.6533 260.624 51.9867 258.837 52.92C257.077 53.8533 255.104 54.32 252.917 54.32ZM252.917 48.4C254.224 48.4 255.331 47.92 256.237 46.96C257.171 46 257.637 44.6267 257.637 42.84C257.637 41.0533 257.184 39.68 256.277 38.72C255.397 37.76 254.304 37.28 252.997 37.28C251.664 37.28 250.557 37.76 249.677 38.72C248.797 39.6533 248.357 41.0267 248.357 42.84C248.357 44.6267 248.784 46 249.637 46.96C250.517 47.92 251.611 48.4 252.917 48.4ZM290.266 31.68V54H283.426V50.96C282.733 51.9467 281.786 52.7467 280.586 53.36C279.413 53.9467 278.106 54.24 276.666 54.24C274.959 54.24 273.453 53.8667 272.146 53.12C270.839 52.3467 269.826 51.24 269.106 49.8C268.386 48.36 268.026 46.6667 268.026 44.72V31.68H274.826V43.8C274.826 45.2933 275.213 46.4533 275.986 47.28C276.759 48.1067 277.799 48.52 279.106 48.52C280.439 48.52 281.493 48.1067 282.266 47.28C283.039 46.4533 283.426 45.2933 283.426 43.8V31.68H290.266ZM304.259 54.32C302.313 54.32 300.579 53.9867 299.059 53.32C297.539 52.6533 296.339 51.7467 295.459 50.6C294.579 49.4267 294.086 48.12 293.979 46.68H300.739C300.819 47.4533 301.179 48.08 301.819 48.56C302.459 49.04 303.246 49.28 304.179 49.28C305.033 49.28 305.686 49.12 306.139 48.8C306.619 48.4533 306.859 48.0133 306.859 47.48C306.859 46.84 306.526 46.3733 305.859 46.08C305.193 45.76 304.113 45.4133 302.619 45.04C301.019 44.6667 299.686 44.28 298.619 43.88C297.553 43.4533 296.633 42.8 295.859 41.92C295.086 41.0133 294.699 39.8 294.699 38.28C294.699 37 295.046 35.84 295.739 34.8C296.459 33.7333 297.499 32.8933 298.859 32.28C300.246 31.6667 301.886 31.36 303.779 31.36C306.579 31.36 308.779 32.0533 310.379 33.44C312.006 34.8267 312.939 36.6667 313.179 38.96H306.859C306.753 38.1867 306.406 37.5733 305.819 37.12C305.259 36.6667 304.513 36.44 303.579 36.44C302.779 36.44 302.166 36.6 301.739 36.92C301.313 37.2133 301.099 37.6267 301.099 38.16C301.099 38.8 301.433 39.28 302.099 39.6C302.793 39.92 303.859 40.24 305.299 40.56C306.953 40.9867 308.299 41.4133 309.339 41.84C310.379 42.24 311.286 42.9067 312.059 43.84C312.859 44.7467 313.273 45.9733 313.299 47.52C313.299 48.8267 312.926 50 312.179 51.04C311.459 52.0533 310.406 52.8533 309.019 53.44C307.659 54.0267 306.073 54.32 304.259 54.32ZM338.524 42.48C338.524 43.12 338.484 43.7867 338.404 44.48H322.924C323.031 45.8667 323.471 46.9333 324.244 47.68C325.044 48.4 326.017 48.76 327.164 48.76C328.871 48.76 330.057 48.04 330.724 46.6H338.004C337.631 48.0667 336.951 49.3867 335.964 50.56C335.004 51.7333 333.791 52.6533 332.324 53.32C330.857 53.9867 329.217 54.32 327.404 54.32C325.217 54.32 323.271 53.8533 321.564 52.92C319.857 51.9867 318.524 50.6533 317.564 48.92C316.604 47.1867 316.124 45.16 316.124 42.84C316.124 40.52 316.591 38.4933 317.524 36.76C318.484 35.0267 319.817 33.6933 321.524 32.76C323.231 31.8267 325.191 31.36 327.404 31.36C329.564 31.36 331.484 31.8133 333.164 32.72C334.844 33.6267 336.151 34.92 337.084 36.6C338.044 38.28 338.524 40.24 338.524 42.48ZM331.524 40.68C331.524 39.5067 331.124 38.5733 330.324 37.88C329.524 37.1867 328.524 36.84 327.324 36.84C326.177 36.84 325.204 37.1733 324.404 37.84C323.631 38.5067 323.151 39.4533 322.964 40.68H331.524Z" fill="#313743"/>
</svg>
