<?xml version="1.0" standalone="no"?>
<!DOCTYPE svg PUBLIC "-//W3C//DTD SVG 1.0//EN" "http://www.w3.org/TR/2001/REC-SVG-20010904/DTD/svg10.dtd">
<svg xmlns="http://www.w3.org/2000/svg" xmlns:xlink="http://www.w3.org/1999/xlink" id="body_1" width="221" height="222">

<g transform="matrix(0.39927158 0 0 0.39927158 0.13928446 -0)">
    <path d="M388.9393 554.0005L148.49055 554.0005C 122.42268 554.0005 101.214676 532.7925 101.214676 506.72412L101.214676 506.72412L101.214676 47.27588C 101.21468 21.20801 122.42269 0 148.49055 0L148.49055 0L388.93927 0C 415.00665 0 436.21466 21.20801 436.21466 47.27588L436.21466 47.27588L436.21466 506.72412C 436.21466 532.7925 415.00665 554.0005 388.93927 554.0005L388.93927 554.0005L388.9393 554.0005z" stroke="none" fill="#3F3D56" fill-rule="nonzero" />
    <path d="M436.21487 169.00015C 435.11185 169.00015 434.21487 169.89713 434.21487 171.00015L434.21487 171.00015L434.21487 235.00015C 434.21487 236.10318 435.11185 237.00015 436.21487 237.00015C 437.3179 237.00015 438.21487 236.10318 438.21487 235.00015L438.21487 235.00015L438.21487 171.00015C 438.21487 169.89713 437.3179 169.00015 436.21487 169.00015z" stroke="none" fill="#3F3D56" fill-rule="nonzero" />
    <path d="M431.71512 47.27623L431.71512 506.71622C 431.71512 529.4062 414.05515 547.9662 391.72513 549.4062L391.72513 549.4062L391.71512 549.4062C 391.3851 549.4262 391.05515 549.4462 390.71512 549.45624C 390.1251 549.4862 389.53513 549.4962 388.93515 549.4962C 388.93515 549.4962 386.73514 549.3362 382.71512 549.0362C 378.65512 548.7362 372.74515 548.2862 365.3751 547.6962C 363.16513 547.5262 360.8351 547.3362 358.3751 547.1362C 353.47513 546.7362 348.09512 546.2962 342.3251 545.7962C 340.02512 545.6062 337.6451 545.39624 335.21512 545.1862C 322.79514 544.1162 308.8851 542.8662 294.21512 541.4462C 291.73514 541.2162 289.23514 540.9762 286.71512 540.7262C 286.05515 540.6562 285.3851 540.5962 284.71512 540.5262C 274.2551 539.4962 263.5051 538.3862 252.71512 537.20624C 252.04514 537.1362 251.37509 537.0662 250.71512 536.9962C 232.12509 534.9462 213.46512 532.7162 196.0051 530.3162C 182.5751 528.4762 169.85513 526.5362 158.43515 524.5262C 154.71512 523.8662 151.1351 523.20624 147.71512 522.5362C 147.04514 522.4062 146.37509 522.2762 145.71512 522.1362C 121.545135 517.2962 105.71512 512.07623 105.71512 506.7162L105.71512 506.7162L105.71512 47.27623C 105.71512 23.64629 124.86514 4.4962616 148.49515 4.4962616L148.49515 4.4962616L174.03513 4.4962616C 178.11514 4.4962616 181.39511 7.6762514 181.74515 11.746262C 181.77512 12.016281 181.80515 12.286242 181.85513 12.556262C 182.59512 16.646292 186.34512 19.496262 190.5051 19.496262L190.5051 19.496262L346.92514 19.496262C 351.0851 19.496262 354.8351 16.646282 355.5751 12.556261C 355.6251 12.286242 355.65512 12.016281 355.68515 11.746261C 356.03513 7.6762505 359.3151 4.4962606 363.3951 4.4962606L363.3951 4.4962606L388.93515 4.4962606C 412.5651 4.4962606 431.71512 23.646282 431.71512 47.27623z" stroke="none" fill="#FFFFFF" fill-rule="nonzero" />
    <path d="M229.89487 465.00015C 230.04489 465.67014 230.1749 466.3301 230.3049 467.00015L230.3049 467.00015L158.21487 467.00015C 153.5549 467.00015 149.59488 470.05014 148.22488 474.26016C 147.95486 473.82016 147.6749 473.38016 147.40488 472.94016L147.40488 472.94016L147.40488 472.93015C 147.4849 472.23013 147.56485 471.53012 147.65488 470.8301C 149.08487 459.5201 151.88486 448.41013 155.9949 437.7701C 161.8049 438.7701 167.33487 434.87015 168.34488 429.06015C 168.87485 425.9601 168.01486 422.7701 165.9849 420.36014L165.9849 420.36014L165.62485 417.39017L165.9949 416.73013C 173.94485 403.0201 191.50485 398.36014 205.20486 406.31015C 211.71487 410.0801 216.4849 416.2701 218.47488 423.53012C 222.25485 437.24014 226.95486 451.0801 229.89487 465.00015z" stroke="none" fill="#FAFAFA" fill-rule="nonzero" />
    <path d="M423.9949 352.05014L423.81485 352.70016C 419.90488 353.75015 416.06485 355.04013 412.32486 356.56015C 410.18484 357.44016 408.07486 358.39017 405.9949 359.42014C 398.83487 363.00015 395.93484 371.70016 399.52487 378.86014C 401.33487 382.49014 404.59488 385.19016 408.50485 386.31015L408.50485 386.31015L408.78488 386.39017L409.38486 386.56015C 401.12485 400.91013 390.46487 413.74014 377.8649 424.48013C 359.71487 481.49014 312.58487 481.19016 265.0549 457.95016L265.0549 457.95016L265.02487 457.94016C 261.3649 467.94016 257.25485 477.75015 252.71487 487.37015C 252.0549 488.76016 251.39487 490.14017 250.71487 491.5201L250.71487 491.5201L250.71487 477.50015C 250.71487 476.60013 250.60489 475.72012 250.38486 474.89017C 250.78488 474.00015 251.16489 473.11014 251.54489 472.2101C 263.75485 443.49014 271.9949 413.14017 275.95486 382.01016C 277.4849 369.86014 278.33487 357.64017 278.50485 345.40012C 278.63486 335.37015 278.31485 325.35013 277.56485 315.35013C 273.40488 261.07016 256.43484 208.55014 228.03488 162.10013C 212.84488 151.15012 201.37485 135.80014 195.1749 118.13016C 192.91489 111.78012 191.59488 105.13016 191.2449 98.39017C 193.0549 98.87015 201.68484 71.48013 200.50485 69.59012C 203.56485 66.02011 208.39487 64.660126 211.6749 61.22012C 227.97488 44.08011 246.75485 49.80014 253.54489 76.72012C 273.58487 90.21011 271.5449 108.150116 256.2449 123.73013C 246.51486 133.64017 243.4949 148.32016 234.69485 159.13016C 235.32486 160.19016 235.9949 161.23013 236.62485 162.29013C 248.18484 181.75015 257.8049 202.29013 265.3549 223.63016C 265.7349 200.84012 271.51486 178.46011 282.22488 158.34012C 292.8649 139.67014 310.25485 125.01016 325.87485 109.670135C 337.43484 98.150116 356.15488 98.180145 367.6749 109.74014C 373.20486 115.29013 376.3049 122.81015 376.3049 130.64017L376.3049 130.64017L376.28488 131.40012C 374.14487 132.28012 372.03488 133.23013 369.95486 134.26016C 362.7949 137.84012 359.90488 146.55014 363.4849 153.70016C 365.2949 157.33011 368.5549 160.04013 372.46487 161.15012L372.46487 161.15012L372.7449 161.23013C 371.12485 168.36014 368.97488 175.35013 366.2949 182.15012C 375.1749 251.18015 334.78488 270.84012 281.3549 265.23013C 280.09488 265.69016 278.87485 266.15012 277.62485 266.57016C 284.14487 296.5201 286.7349 327.20016 285.33487 357.81015C 284.45486 375.87015 282.1149 393.8301 278.34488 411.51016L278.34488 411.51016L278.51486 410.89017C 284.87485 391.50015 297.72488 374.90012 314.90488 363.89017C 340.39487 347.82016 373.90488 344.94016 400.7449 332.82016C 409.03488 328.86014 418.95486 332.37015 422.9149 340.66013C 424.6149 344.2101 424.9949 348.24014 423.9949 352.05014z" stroke="none" fill="#FAFAFA" fill-rule="nonzero" />
    <path d="M100.21487 121.00016C 99.11184 121.00016 98.21487 121.89713 98.21487 123.00016L98.21487 123.00016L98.21487 139.00015C 98.21487 140.10318 99.11184 141.00015 100.21487 141.00015C 101.317894 141.00015 102.21487 140.10318 102.21487 139.00015L102.21487 139.00015L102.21487 123.00015C 102.21487 121.897125 101.317894 121.00015 100.21487 121.00015L100.21487 121.00015L100.21487 121.00016z" stroke="none" fill="#3F3D56" fill-rule="nonzero" />
    <path d="M100.21487 169.00015C 99.11184 169.00015 98.21487 169.89713 98.21487 171.00015L98.21487 171.00015L98.21487 202.00015C 98.21487 203.10318 99.11184 204.00015 100.21487 204.00015C 101.317894 204.00015 102.21487 203.10318 102.21487 202.00015L102.21487 202.00015L102.21487 171.00015C 102.21487 169.89713 101.317894 169.00015 100.21487 169.00015z" stroke="none" fill="#3F3D56" fill-rule="nonzero" />
    <path d="M100.21487 213.00015C 99.11184 213.00015 98.21487 213.89713 98.21487 215.00015L98.21487 215.00015L98.21487 246.00015C 98.21487 247.10318 99.11184 248.00015 100.21487 248.00015C 101.317894 248.00015 102.21487 247.10318 102.21487 246.00015L102.21487 246.00015L102.21487 215.00015C 102.21487 213.89713 101.317894 213.00015 100.21487 213.00015z" stroke="none" fill="#3F3D56" fill-rule="nonzero" />
    <path d="M134.71487 13.50016C 134.71487 12.395591 135.6103 11.50016 136.71487 11.50016L136.71487 11.50016L171.71487 11.50016C 172.81944 11.50016 173.71487 12.395591 173.71487 13.50016L173.71487 13.50016L173.71487 14.50016C 173.71487 15.60473 172.81944 16.50016 171.71487 16.50016L171.71487 16.50016L136.71487 16.50016C 135.6103 16.50016 134.71487 15.60473 134.71487 14.50016L134.71487 14.50016L134.71487 13.50016z" stroke="none" fill="#3F3D56" fill-rule="nonzero" />
    <path d="M373.71487 12.50016C 373.71487 13.604731 373.32434 14.54754 372.5433 15.328588C 371.76227 16.109636 370.81946 16.50016 369.71487 16.50016C 368.6103 16.50016 367.66748 16.109636 366.88644 15.328588C 366.1054 14.54754 365.71487 13.604731 365.71487 12.50016C 365.71487 11.395591 366.1054 10.452782 366.88644 9.671733C 367.66748 8.890685 368.6103 8.50016 369.71487 8.50016C 370.81946 8.50016 371.76227 8.890685 372.5433 9.671733C 373.32434 10.452782 373.71487 11.395591 373.71487 12.50016C 373.71487 12.546708 373.71405 12.593241 373.71243 12.639758" stroke="none" fill="#3F3D56" fill-rule="nonzero" />
    <path d="M384.71487 12.50016C 384.7149 13.604731 384.32437 14.54754 383.5433 15.328588C 382.76227 16.109636 381.81946 16.50016 380.71487 16.50016C 379.61032 16.50016 378.6675 16.109636 377.88644 15.328588C 377.1054 14.54754 376.71487 13.604731 376.71487 12.50016C 376.71487 11.395591 377.1054 10.452782 377.88644 9.671733C 378.6675 8.890685 379.61032 8.50016 380.71487 8.50016C 381.81946 8.50016 382.76227 8.890685 383.5433 9.671733C 384.32437 10.452782 384.7149 11.395591 384.71487 12.50016C 384.7149 12.546708 384.71408 12.593241 384.71243 12.639758" stroke="none" fill="#3F3D56" fill-rule="nonzero" />
    <path d="M395.71487 12.50016C 395.7149 13.604731 395.32437 14.54754 394.5433 15.328588C 393.76227 16.109636 392.81946 16.50016 391.71487 16.50016C 390.61032 16.50016 389.6675 16.109636 388.88644 15.328588C 388.1054 14.54754 387.7149 13.604731 387.71487 12.50016C 387.7149 11.395591 388.1054 10.452782 388.88644 9.671733C 389.6675 8.890685 390.61032 8.50016 391.71487 8.50016C 392.81946 8.50016 393.76227 8.890685 394.5433 9.671733C 395.32437 10.452782 395.7149 11.395591 395.71487 12.50016C 395.7149 12.546708 395.71408 12.593241 395.71243 12.639758" stroke="none" fill="#3F3D56" fill-rule="nonzero" />
    <path d="M358.71487 62.00016L178.71487 62.00016C 174.02786 62.00016 170.21487 58.187172 170.21487 53.50016C 170.21487 48.81315 174.02786 45.00016 178.71487 45.00016L178.71487 45.00016L358.71487 45.00016C 363.4019 45.00016 367.21487 48.81315 367.21487 53.50016C 367.21487 58.187172 363.4019 62.00016 358.71487 62.00016z" stroke="none" fill="#E6E6E6" fill-rule="nonzero" />
    <path d="M181.71487 57.50016C 178.95804 57.50016 176.71487 55.257 176.71487 52.50016C 176.71487 49.74332 178.95804 47.50016 181.71487 47.50016C 184.47171 47.50016 186.71487 49.74332 186.71487 52.50016C 186.71487 55.257 184.47171 57.50016 181.71487 57.50016zM181.71487 49.50016C 180.06058 49.50016 178.71487 50.84586 178.71487 52.50016C 178.71487 54.15446 180.06058 55.50016 181.71487 55.50016C 183.36917 55.50016 184.71487 54.15446 184.71487 52.50016C 184.71487 50.84586 183.36917 49.50016 181.71487 49.50016z" stroke="none" fill="#FFFFFF" fill-rule="nonzero" />
    <path d="M189.40775 60.89811C 189.16263 60.89811 188.91702 60.80875 188.72415 60.627598L188.72415 60.627598L184.03128 56.22965C 183.62796 55.852207 183.60745 55.2194 183.98538 54.81656C 184.36234 54.41226 184.99515 54.39224 185.39847 54.77066L185.39847 54.77066L190.09134 59.16861C 190.49466 59.54605 190.51517 60.17886 190.13724 60.5817C 189.94046 60.79215 189.67435 60.89811 189.40775 60.89811z" stroke="none" fill="#FFFFFF" fill-rule="nonzero" />
    <path d="M181.21487 231.00015C 180.38773 231.00015 179.71487 231.673 179.71487 232.50015L179.71487 232.50015L179.71487 233.50015C 179.71487 234.3273 180.38773 235.00015 181.21487 235.00015L181.21487 235.00015L216.21487 235.00015C 217.04202 235.00015 217.71487 234.3273 217.71487 233.50015L217.71487 233.50015L217.71487 232.50015C 217.71487 231.673 217.04202 231.00015 216.21487 231.00015L216.21487 231.00015L181.21487 231.00015z" stroke="none" fill="#3F3D56" fill-rule="nonzero" />
    <path d="M240.21487 216.00015L158.21487 216.00015C 151.3223 216.00015 145.71487 210.39273 145.71487 203.50015L145.71487 203.50015L145.71487 121.50016C 145.71487 114.60758 151.3223 109.00016 158.21487 109.00016L158.21487 109.00016L240.21487 109.00016C 247.10745 109.00016 252.71487 114.60758 252.71487 121.50016L252.71487 121.50016L252.71487 203.50015C 252.71487 210.39273 247.10745 216.00015 240.21487 216.00015zM158.21487 111.00015C 152.41588 111.00015 147.71487 115.701164 147.71487 121.50015L147.71487 121.50015L147.71487 203.50015C 147.71487 209.29915 152.41588 214.00015 158.21487 214.00015L158.21487 214.00015L215.65385 214.00015C 235.01752 214.00015 250.71487 198.3028 250.71487 178.93913L250.71487 178.93913L250.71487 121.50015C 250.71487 115.701164 246.01387 111.00015 240.21487 111.00015L240.21487 111.00015L158.21487 111.00015z" stroke="none" fill="#F2F2F2" fill-rule="nonzero" />
	<g>
        <path d="M170.21487 119.50016C 163.87357 119.50016 158.71487 124.65885 158.71487 131.00015L158.71487 131.00015L158.71487 149.00015C 158.71487 155.34146 163.87357 160.50015 170.21487 160.50015L170.21487 160.50015L188.21487 160.50015C 194.55618 160.50015 199.71487 155.34146 199.71487 149.00015L199.71487 149.00015L199.71487 131.00015C 199.71487 124.658844 194.55618 119.50015 188.21487 119.50015L188.21487 119.50015L170.21487 119.50015L170.21487 119.50016z" stroke="none" fill="#F2F2F2" fill-rule="nonzero" />
        <path d="M217.21487 119.50016C 210.87357 119.50016 205.71487 124.65885 205.71487 131.00015L205.71487 131.00015L205.71487 149.00015C 205.71487 155.34146 210.87357 160.50015 217.21487 160.50015L217.21487 160.50015L235.21487 160.50015C 241.55618 160.50015 246.71487 155.34146 246.71487 149.00015L246.71487 149.00015L246.71487 131.00015C 246.71487 124.658844 241.55618 119.50015 235.21487 119.50015L235.21487 119.50015L217.21487 119.50015L217.21487 119.50016z" stroke="none" fill="#F2F2F2" fill-rule="nonzero" />
        <path d="M166.71487 165.00015C 160.37357 165.00015 155.21487 170.15884 155.21487 176.50015L155.21487 176.50015L155.21487 194.50015C 155.21487 200.84146 160.37357 206.00015 166.71487 206.00015L166.71487 206.00015L184.71487 206.00015C 191.05618 206.00015 196.21487 200.84146 196.21487 194.50015L196.21487 194.50015L196.21487 176.50015C 196.21487 170.15884 191.05618 165.00015 184.71487 165.00015L184.71487 165.00015L166.71487 165.00015z" stroke="none" fill="#F2F2F2" fill-rule="nonzero" />
	</g>
    <path d="M320.21487 231.00015C 319.38773 231.00015 318.71487 231.673 318.71487 232.50015L318.71487 232.50015L318.71487 233.50015C 318.71487 234.3273 319.38773 235.00015 320.21487 235.00015L320.21487 235.00015L355.21487 235.00015C 356.04202 235.00015 356.71487 234.3273 356.71487 233.50015L356.71487 233.50015L356.71487 232.50015C 356.71487 231.673 356.04202 231.00015 355.21487 231.00015L355.21487 231.00015L320.21487 231.00015z" stroke="none" fill="#3F3D56" fill-rule="nonzero" />
    <path d="M181.21487 409.00015C 180.38773 409.00015 179.71487 409.673 179.71487 410.50015L179.71487 410.50015L179.71487 411.50015C 179.71487 412.3273 180.38773 413.00015 181.21487 413.00015L181.21487 413.00015L216.21487 413.00015C 217.04202 413.00015 217.71487 412.3273 217.71487 411.50015L217.71487 411.50015L217.71487 410.50015C 217.71487 409.673 217.04202 409.00015 216.21487 409.00015L216.21487 409.00015L181.21487 409.00015z" stroke="none" fill="#3F3D56" fill-rule="nonzero" />
    <path d="M240.21487 394.00015L158.21487 394.00015C 151.3223 394.00015 145.71487 388.39273 145.71487 381.50015L145.71487 381.50015L145.71487 299.50015C 145.71487 292.60757 151.3223 287.00015 158.21487 287.00015L158.21487 287.00015L240.21487 287.00015C 247.10745 287.00015 252.71487 292.60757 252.71487 299.50015L252.71487 299.50015L252.71487 381.50015C 252.71487 388.39273 247.10745 394.00015 240.21487 394.00015zM158.21487 289.00015C 152.41588 289.00015 147.71487 293.70117 147.71487 299.50015L147.71487 299.50015L147.71487 381.50015C 147.71487 387.29913 152.41588 392.00015 158.21487 392.00015L158.21487 392.00015L216.65385 392.00015C 235.46524 392.00015 250.71487 376.75052 250.71487 357.93915L250.71487 357.93915L250.71487 299.50018C 250.71487 293.7012 246.01387 289.00018 240.21487 289.00018L240.21487 289.00018L158.21487 289.00018z" stroke="none" fill="#F2F2F2" fill-rule="nonzero" />
    <path d="M166.71487 297.00015C 160.37357 297.00015 155.21487 302.15884 155.21487 308.50015L155.21487 308.50015L155.21487 326.50015C 155.21487 332.84146 160.37357 338.00015 166.71487 338.00015L166.71487 338.00015L184.71487 338.00015C 191.05618 338.00015 196.21487 332.84146 196.21487 326.50015L196.21487 326.50015L196.21487 308.50015C 196.21487 302.15884 191.05618 297.00015 184.71487 297.00015L184.71487 297.00015L166.71487 297.00015z" stroke="none" fill="#F2F2F2" fill-rule="nonzero" />
    <path d="M213.71487 297.00015C 207.37357 297.00015 202.21487 302.15884 202.21487 308.50015L202.21487 308.50015L202.21487 326.50015C 202.21487 332.84146 207.37357 338.00015 213.71487 338.00015L213.71487 338.00015L231.71487 338.00015C 238.05618 338.00015 243.21487 332.84146 243.21487 326.50015L243.21487 326.50015L243.21487 308.50015C 243.21487 302.15884 238.05618 297.00015 231.71487 297.00015L231.71487 297.00015L213.71487 297.00015z" stroke="none" fill="#F2F2F2" fill-rule="nonzero" />
    <path d="M166.71487 343.00015C 160.37357 343.00015 155.21487 348.15884 155.21487 354.50015L155.21487 354.50015L155.21487 372.50015C 155.21487 378.84146 160.37357 384.00015 166.71487 384.00015L166.71487 384.00015L184.71487 384.00015C 191.05618 384.00015 196.21487 378.84146 196.21487 372.50015L196.21487 372.50015L196.21487 354.50015C 196.21487 348.15884 191.05618 343.00015 184.71487 343.00015L184.71487 343.00015L166.71487 343.00015z" stroke="none" fill="#F2F2F2" fill-rule="nonzero" />
    <path d="M320.21487 409.00015C 319.38773 409.00015 318.71487 409.673 318.71487 410.50015L318.71487 410.50015L318.71487 411.50015C 318.71487 412.3273 319.38773 413.00015 320.21487 413.00015L320.21487 413.00015L355.21487 413.00015C 356.04202 413.00015 356.71487 412.3273 356.71487 411.50015L356.71487 411.50015L356.71487 410.50015C 356.71487 409.673 356.04202 409.00015 355.21487 409.00015L355.21487 409.00015L320.21487 409.00015z" stroke="none" fill="#3F3D56" fill-rule="nonzero" />
    <path d="M379.21487 394.00015L297.21487 394.00015C 290.3223 394.00015 284.71487 388.39273 284.71487 381.50015L284.71487 381.50015L284.71487 299.50015C 284.71487 292.60757 290.3223 287.00015 297.21487 287.00015L297.21487 287.00015L379.21487 287.00015C 386.10745 287.00015 391.71487 292.60757 391.71487 299.50015L391.71487 299.50015L391.71487 381.50015C 391.71487 388.39273 386.10745 394.00015 379.21487 394.00015zM297.21487 289.00015C 291.4159 289.00015 286.71487 293.70117 286.71487 299.50015L286.71487 299.50015L286.71487 381.50015C 286.71487 387.29913 291.4159 392.00015 297.21487 392.00015L297.21487 392.00015L356.31134 392.00015C 374.7596 392.00015 389.71487 377.04486 389.71487 358.59662L389.71487 358.59662L389.71487 299.50015C 389.71487 293.70117 385.01385 289.00015 379.21487 289.00015L379.21487 289.00015L297.21487 289.00015z" stroke="none" fill="#F2F2F2" fill-rule="nonzero" />
    <path d="M305.71487 297.00015C 299.37357 297.00015 294.21487 302.15884 294.21487 308.50015L294.21487 308.50015L294.21487 326.50015C 294.21487 332.84146 299.37357 338.00015 305.71487 338.00015L305.71487 338.00015L323.71487 338.00015C 330.05618 338.00015 335.21487 332.84146 335.21487 326.50015L335.21487 326.50015L335.21487 308.50015C 335.21487 302.15884 330.05618 297.00015 323.71487 297.00015L323.71487 297.00015L305.71487 297.00015z" stroke="none" fill="#F2F2F2" fill-rule="nonzero" />
    <path d="M352.71487 297.00015C 346.37357 297.00015 341.21487 302.15884 341.21487 308.50015L341.21487 308.50015L341.21487 326.50015C 341.21487 332.84146 346.37357 338.00015 352.71487 338.00015L352.71487 338.00015L370.71487 338.00015C 377.05618 338.00015 382.21487 332.84146 382.21487 326.50015L382.21487 326.50015L382.21487 308.50015C 382.21487 302.15884 377.05618 297.00015 370.71487 297.00015L370.71487 297.00015L352.71487 297.00015z" stroke="none" fill="#F2F2F2" fill-rule="nonzero" />
    <path d="M305.71487 343.00015C 299.37357 343.00015 294.21487 348.15884 294.21487 354.50015L294.21487 354.50015L294.21487 372.50015C 294.21487 378.84146 299.37357 384.00015 305.71487 384.00015L305.71487 384.00015L323.71487 384.00015C 330.05618 384.00015 335.21487 378.84146 335.21487 372.50015L335.21487 372.50015L335.21487 354.50015C 335.21487 348.15884 330.05618 343.00015 323.71487 343.00015L323.71487 343.00015L305.71487 343.00015z" stroke="none" fill="#F2F2F2" fill-rule="nonzero" />
    <path d="M252.7151 477.49625L252.7151 537.20624C 252.04512 537.1362 251.37508 537.0662 250.7151 536.9962L250.7151 536.9962L250.7151 477.49622C 250.7151 476.5962 250.60512 475.7162 250.38509 474.88623C 249.22511 470.3562 245.10512 466.99622 240.2151 466.99622L240.2151 466.99622L158.2151 466.99622C 153.55513 466.99622 149.59511 470.0462 148.22511 474.25623C 147.8951 475.27618 147.7151 476.3662 147.7151 477.49622L147.7151 477.49622L147.7151 522.5362C 147.04512 522.4062 146.37508 522.2762 145.7151 522.1362L145.7151 522.1362L145.7151 477.49622C 145.7151 475.0462 146.42513 472.75623 147.6551 470.82623C 149.87508 467.32623 153.7751 464.99622 158.2151 464.99622L158.2151 464.99622L240.2151 464.99622C 245.2151 464.99622 249.53511 467.94623 251.54512 472.20624C 252.29512 473.8062 252.7151 475.6062 252.7151 477.49622L252.7151 477.49622L252.7151 477.49625z" stroke="none" fill="#F2F2F2" fill-rule="nonzero" />
    <path d="M184.71487 475.00015L166.71487 475.00015C 160.37485 475.00015 155.21487 480.16013 155.21487 486.50015L155.21487 486.50015L155.21487 504.50015C 155.21487 510.84012 160.37485 516.0001 166.71487 516.0001L166.71487 516.0001L184.71487 516.0001C 191.0549 516.0001 196.21487 510.8401 196.21487 504.50012L196.21487 504.50012L196.21487 486.50012C 196.21487 480.1601 191.0549 475.00012 184.71487 475.00012L184.71487 475.00012L184.71487 475.00015z" stroke="none" fill="#F2F2F2" fill-rule="nonzero" />
    <path d="M231.71487 475.00015L213.71487 475.00015C 207.37485 475.00015 202.21487 480.16013 202.21487 486.50015L202.21487 486.50015L202.21487 504.50015C 202.21487 510.84012 207.37485 516.0001 213.71487 516.0001L213.71487 516.0001L231.71487 516.0001C 238.0549 516.0001 243.21487 510.8401 243.21487 504.50012L243.21487 504.50012L243.21487 486.50012C 243.21487 480.1601 238.0549 475.00012 231.71487 475.00012L231.71487 475.00012L231.71487 475.00015z" stroke="none" fill="#F2F2F2" fill-rule="nonzero" />
    <path d="M184.7151 520.9963L166.7151 520.9963C 163.4651 520.9963 160.5251 522.35626 158.43513 524.52625C 169.85512 526.53625 182.57509 528.47626 196.00508 530.3163C 194.98512 525.0163 190.31508 520.9963 184.7151 520.9963z" stroke="none" fill="#F2F2F2" fill-rule="nonzero" />
    <path d="M391.71512 477.49625L391.71512 549.4563L389.71512 549.4563L389.71512 477.49628C 389.71512 471.7063 385.0051 466.99628 379.21512 466.99628L379.21512 466.99628L297.21512 466.99628C 291.42514 466.99628 286.71512 471.7063 286.71512 477.49628L286.71512 477.49628L286.71512 540.72626C 286.05515 540.65625 285.3851 540.59625 284.71512 540.52625L284.71512 540.52625L284.71512 477.49628C 284.71512 470.60626 290.3251 464.99628 297.21512 464.99628L297.21512 464.99628L379.21512 464.99628C 386.10513 464.99628 391.71512 470.60626 391.71512 477.49628L391.71512 477.49628L391.71512 477.49625z" stroke="none" fill="#F2F2F2" fill-rule="nonzero" />
    <path d="M323.71487 475.00015L305.71487 475.00015C 299.37485 475.00015 294.21487 480.16013 294.21487 486.50015L294.21487 486.50015L294.21487 504.50015C 294.21487 510.84012 299.37485 516.0001 305.71487 516.0001L305.71487 516.0001L323.71487 516.0001C 330.0549 516.0001 335.21487 510.8401 335.21487 504.50012L335.21487 504.50012L335.21487 486.50012C 335.21487 480.1601 330.0549 475.00012 323.71487 475.00012L323.71487 475.00012L323.71487 475.00015z" stroke="none" fill="#F2F2F2" fill-rule="nonzero" />
    <path d="M370.71487 475.00015L352.71487 475.00015C 346.37485 475.00015 341.21487 480.16013 341.21487 486.50015L341.21487 486.50015L341.21487 504.50015C 341.21487 510.84012 346.37485 516.0001 352.71487 516.0001L352.71487 516.0001L370.71487 516.0001C 377.0549 516.0001 382.21487 510.8401 382.21487 504.50012L382.21487 504.50012L382.21487 486.50012C 382.21487 480.1601 377.0549 475.00012 370.71487 475.00012L370.71487 475.00012L370.71487 475.00015z" stroke="none" fill="#F2F2F2" fill-rule="nonzero" />
    <path d="M323.71512 520.9963L305.71512 520.9963C 299.3751 520.9963 294.21512 526.15625 294.21512 532.4963L294.21512 532.4963L294.21512 541.4463C 308.8851 542.8663 322.79514 544.1163 335.21512 545.1863L335.21512 545.1863L335.21512 532.4963C 335.21512 526.15625 330.05515 520.9963 323.71512 520.9963z" stroke="none" fill="#F2F2F2" fill-rule="nonzero" />
    <path d="M206.94427 342.8289C 204.23761 342.8289 202.03574 345.03076 202.03574 347.73743L202.03574 347.73743L202.03574 355.42035C 202.03574 358.127 204.23761 360.3289 206.94427 360.3289L206.94427 360.3289L214.6272 360.3289C 217.33386 360.3289 219.53574 358.127 219.53574 355.42035L219.53574 355.42035L219.53574 347.73743C 219.53574 345.03076 217.33386 342.8289 214.6272 342.8289L214.6272 342.8289L206.94427 342.8289z" stroke="none" fill="#F2F2F2" fill-rule="nonzero" />
    <path d="M230.94427 342.8289C 228.23761 342.8289 226.03574 345.03076 226.03574 347.73743L226.03574 347.73743L226.03574 355.42035C 226.03574 358.127 228.23761 360.3289 230.94427 360.3289L230.94427 360.3289L238.6272 360.3289C 241.33386 360.3289 243.53574 358.127 243.53574 355.42035L243.53574 355.42035L243.53574 347.73743C 243.53574 345.03076 241.33386 342.8289 238.6272 342.8289L238.6272 342.8289L230.94427 342.8289z" stroke="none" fill="#F2F2F2" fill-rule="nonzero" />
    <path d="M206.94427 166.8289C 204.23761 166.8289 202.03574 169.03078 202.03574 171.73744L202.03574 171.73744L202.03574 179.42038C 202.03574 182.12704 204.23761 184.32892 206.94427 184.32892L206.94427 184.32892L214.6272 184.32892C 217.33386 184.32892 219.53574 182.12704 219.53574 179.42038L219.53574 179.42038L219.53574 171.73746C 219.53574 169.03079 217.33386 166.82892 214.6272 166.82892L214.6272 166.82892L206.94427 166.82892L206.94427 166.8289z" stroke="none" fill="#F2F2F2" fill-rule="nonzero" />
    <path d="M230.94427 166.8289C 228.23761 166.8289 226.03574 169.03078 226.03574 171.73744L226.03574 171.73744L226.03574 179.42038C 226.03574 182.12704 228.23761 184.32892 230.94427 184.32892L230.94427 184.32892L238.6272 184.32892C 241.33386 184.32892 243.53574 182.12704 243.53574 179.42038L243.53574 179.42038L243.53574 171.73746C 243.53574 169.03079 241.33386 166.82892 238.6272 166.82892L238.6272 166.82892L230.94427 166.82892L230.94427 166.8289z" stroke="none" fill="#F2F2F2" fill-rule="nonzero" />
    <path d="M353.8049 521.0002L346.12485 521.0002C 343.4149 521.0002 341.21487 523.2002 341.21487 525.91016L341.21487 525.91016L341.21487 533.59015C 341.21487 536.3002 343.4149 538.5002 346.12485 538.5002L346.12485 538.5002L353.8049 538.5002C 356.51486 538.5002 358.71487 536.3002 358.71487 533.59015L358.71487 533.59015L358.71487 525.91016C 358.71487 523.2002 356.51486 521.0002 353.8049 521.0002z" stroke="none" fill="#F2F2F2" fill-rule="nonzero" />
    <path d="M377.8049 521.0002L370.12485 521.0002C 367.4149 521.0002 365.21487 523.2002 365.21487 525.91016L365.21487 525.91016L365.21487 533.59015C 365.21487 536.3002 367.4149 538.5002 370.12485 538.5002L370.12485 538.5002L377.8049 538.5002C 380.51486 538.5002 382.71487 536.3002 382.71487 533.59015L382.71487 533.59015L382.71487 525.91016C 382.71487 523.2002 380.51486 521.0002 377.8049 521.0002z" stroke="none" fill="#F2F2F2" fill-rule="nonzero" />
    <path d="M353.80515 543.9963L346.1251 543.9963C 344.59512 543.9963 343.22513 544.6963 342.3251 545.79626C 348.09512 546.29626 353.47513 546.73627 358.3751 547.1363C 357.67514 545.29626 355.8951 543.9963 353.80515 543.9963z" stroke="none" fill="#F2F2F2" fill-rule="nonzero" />
    <path d="M377.80515 543.9963L370.1251 543.9963C 367.8351 543.9963 365.90512 545.5663 365.3751 547.6963C 372.74515 548.28625 378.65512 548.73627 382.71512 549.03625L382.71512 549.03625L382.71512 548.90625C 382.71512 546.1963 380.5151 543.9963 377.80515 543.9963z" stroke="none" fill="#F2F2F2" fill-rule="nonzero" />
	<g>
		<g>
            <path d="M397.93585 121.5439L401.3024 138.33195L391.9804 141.59317L389.05264 123.71715C 388.6241 123.367226 388.23856 122.95013 387.91467 122.46663C 386.153 119.83696 386.8567 116.27707 389.48636 114.51541C 392.11603 112.75376 395.6759 113.45743 397.4376 116.087105C 398.56107 117.76417 398.67786 119.8179 397.93588 121.54389L397.93588 121.54389L397.93585 121.5439z" stroke="none" fill="#A0616A" fill-rule="nonzero" />
            <path d="M446.68335 231.4673L460.32788 216.7692L416.58502 172.02545C 416.58502 172.02545 414.798 170.34505 416.00543 170.1122C 417.21286 169.87935 415.38675 168.06996 415.38675 168.06996C 415.38675 168.06996 412.5378 165.36378 414.82278 166.20833C 417.10776 167.05287 414.21152 164.19049 414.21152 164.19049L414.21152 164.19049L403.9665 130.3715L402.14938 124.37317L386.84933 133.50548C 386.84933 133.50548 386.9851 134.66638 387.25565 136.64662C 388.62057 146.63734 393.41586 177.48367 401.5122 185.32248C 411.21332 194.71498 446.68332 231.46733 446.68332 231.46733L446.68332 231.46733L446.68335 231.4673z" stroke="none" fill="#0E0E0E" fill-rule="nonzero" />
		</g>
		<g>
            <path d="M408.18588 544.6747L398.54837 544.67377L393.96378 507.50015L408.18784 507.50113L408.18588 544.6747L408.18588 544.6747" stroke="none" fill="#A0616A" fill-rule="nonzero" />
            <path d="M408.5251 554.7285L378.8884 554.72736L378.8884 554.3526C 378.88882 547.982 384.05322 542.8177 390.42383 542.8173L390.42383 542.8173L390.42453 542.8173L395.83804 538.7104L405.93848 542.818L408.52557 542.81805L408.5251 554.72845L408.5251 554.7285z" stroke="none" fill="#2F2E41" fill-rule="nonzero" />
		</g>
		<g>
            <path d="M486.80908 535.2283L477.69528 538.3619L461.26944 504.70056L474.72046 500.07516L486.80908 535.2283L486.80908 535.2283" stroke="none" fill="#A0616A" fill-rule="nonzero" />
            <path d="M490.3998 544.6251L462.3741 554.2632L462.25223 553.9088C 460.1806 547.88446 463.38458 541.3212 469.4087 539.2489L469.4087 539.2489L469.40936 539.24866L473.19278 533.6043L484.08002 534.2035L486.5265 533.3621L490.39984 544.6251L490.3998 544.6251z" stroke="none" fill="#2F2E41" fill-rule="nonzero" />
		</g>
        <path d="M468.8251 295.9162L404.1952 295.9162C 404.1952 295.9162 401.04956 323.8975 399.88223 322.19882C 398.7149 320.50015 399.05353 322.96732 399.38422 325.23373C 399.7149 327.50015 396.42377 328.89877 398.56934 330.19946C 400.7149 331.50015 399.94455 333.91296 397.8297 334.70654C 395.71487 335.50012 396.71487 341.50012 396.71487 341.50012L396.71487 341.50012L385.71487 448.91745L394.71487 529.5001L409.71487 529.5001L429.71487 382.50012L429.71487 457.50012L469.71487 524.5001L482.71487 519.5001L466.71487 447.50012L478.71487 314.50012L468.8251 295.91614L468.8251 295.9162z" stroke="none" fill="#2F2E41" fill-rule="nonzero" />
        <path d="M479.71487 303.50015L474.77487 308.92014L399.71487 311.50015L396.71487 304.50015L411.71487 270.50015L427.71487 201.50015L434.71487 186.50015L434.71487 184.85062C 434.71487 184.62013 434.66122 184.39282 434.55814 184.18668C 434.12842 183.32724 434.61594 182.2922 435.5522 182.07614L435.5522 182.07614L435.71487 179.50014L433.71487 180.50014L446.71487 174.50014L457.4149 175.55013L457.71487 176.50014L459.94485 178.2101C 469.2349 185.31013 474.59488 196.4001 474.38486 208.0901L474.38486 208.0901L473.71487 245.50014L479.71487 303.50012L479.71487 303.50015z" stroke="none" fill="#3F3D56" fill-rule="nonzero" />
        <path d="M435.97577 169.478C 436.42184 169.5809 436.86792 169.67012 437.31393 169.73877C 438.70016 169.9652 440.0864 170.03384 441.43826 169.95149C 445.542 169.73877 449.4124 168.22214 452.5417 165.72421C 455.8494 163.08907 458.31982 159.36278 459.35608 154.92963C 461.79224 144.46443 455.2798 133.99234 444.81458 131.5562C 434.50037 129.14748 424.18613 135.43349 421.55096 145.63104C 421.5098 145.78886 421.46863 145.93987 421.43427 146.09769C 418.9981 156.56976 425.50372 167.03497 435.97577 169.47798L435.97577 169.47798L435.97577 169.478z" stroke="none" fill="#A0616A" fill-rule="nonzero" />
		<g>
            <path d="M406.4057 304.5131L416.419 290.62402L425.15134 295.23718L414.04218 309.5449C 414.07727 310.09702 414.0339 310.66336 413.8999 311.2297C 413.1712 314.3099 410.08347 316.21616 407.00327 315.48746C 403.92307 314.75876 402.0168 311.67102 402.7455 308.59082C 403.21024 306.62643 404.63593 305.1436 406.4057 304.5131z" stroke="none" fill="#A0616A" fill-rule="nonzero" />
            <path d="M453.80148 194.00015L433.74637 194.00015L430.71487 256.50015C 430.71487 256.50015 430.69913 258.9531 429.707 258.22662C 428.71487 257.50015 428.6312 260.0695 428.6312 260.0695C 428.6312 260.0695 428.58615 263.9986 427.6505 261.7494C 426.71487 259.50018 426.58755 263.57022 426.58755 263.57022L426.58755 263.57022L408.77234 294.08746L405.61252 299.50018L422.71487 304.50018C 422.71487 304.50018 423.4733 303.61084 424.74054 302.06534C 431.13397 294.2678 450.4783 269.76703 450.71487 258.50018C 450.99832 245.00018 453.80148 194.00018 453.80148 194.00018L453.80148 194.00018L453.80148 194.00015z" stroke="none" fill="#0E0E0E" fill-rule="nonzero" />
		</g>
        <path d="M427.71487 208.50015C 427.71487 208.50015 443.71487 187.50015 457.71487 207.50015L457.71487 207.50015L454.71487 181.50015L439.41373 178.68217C 438.5165 178.58604 437.74173 179.30594 437.7718 180.2078L437.7718 180.2078L427.71487 208.50015z" stroke="none" fill="#3F3D56" fill-rule="nonzero" />
        <path d="M433.71487 187.50015L433.6649 184.04013L433.20486 183.30014L433.71487 182.50015L433.7949 182.32016L435.71487 174.50015L452.81485 168.50015L457.4149 175.55014C 450.50485 180.21011 448.93484 187.67014 433.71487 187.50015z" stroke="none" fill="#0E0E0E" fill-rule="nonzero" />
        <path d="M449.8581 166.58832L448.19098 154.07414C 448.02554 152.83223 446.40985 152.45769 445.71487 153.50017L445.71487 153.50017L442.71487 153.50017L439.71487 143.50017C 439.71487 143.50017 438.5712 148.02672 436.63733 146.91722C 434.50797 145.69557 431.84195 146.30829 429.47336 146.95345L429.47336 146.95345L430.55466 144.08096L425.7392 145.39748L426.38516 143.3593L423.39243 144.31805C 423.90686 143.93478 423.44318 143.02371 422.80923 142.9254C 422.1753 142.82709 419.71487 145.50017 418.71487 145.50017C 417.89044 145.50017 417.07913 144.83879 416.44266 144.3148C 414.75473 142.9252 413.91278 135.9492 414.71487 134.50017C 416.20248 131.81277 419.57767 132.70639 421.71487 130.50017C 422.1912 130.00845 427.23056 129.98401 427.71487 129.50017C 428.3121 128.90352 432.63113 126.7689 433.47528 126.761444C 434.31943 126.75399 435.11777 127.81007 434.56866 128.45128C 434.96094 127.179306 436.59705 126.85123 437.9279 126.876976C 438.86404 126.89509 441.78214 124.41772 442.71484 124.50015C 444.72394 124.677734 444.74857 127.41519 446.75766 127.59277C 448.38025 127.73619 450.30664 128.08842 450.94525 129.58694C 451.25726 130.31912 451.1638 131.14978 451.18698 131.94533C 451.21017 132.74088 451.41815 133.6282 452.0957 134.04579C 452.686 134.40962 453.47543 134.29242 454.0704 133.93631C 454.66537 133.5802 455.10828 133.02342 455.53754 132.47887C 456.18677 134.57947 459.836 139.68007 460.48523 141.78067C 461.142 143.9057 461.80103 146.0403 462.13596 148.23915C 463.15704 154.94241 455.93954 162.06496 451.29382 167.00397" stroke="none" fill="#2F2E41" fill-rule="nonzero" />
	</g>
    <path d="M297.21487 110.00016C 290.87357 110.00016 285.71487 115.15885 285.71487 121.50016L285.71487 121.50016L285.71487 203.50015C 285.71487 209.84146 290.87357 215.00015 297.21487 215.00015L297.21487 215.00015L379.21487 215.00015C 385.55618 215.00015 390.71487 209.84146 390.71487 203.50015L390.71487 203.50015L390.71487 121.50016C 390.71487 115.15885 385.55618 110.00016 379.21487 110.00016L379.21487 110.00016L297.21487 110.00016z" stroke="none" fill="#F2F2F2" fill-rule="nonzero" />
    <path d="M305.71487 119.00016C 299.37357 119.00016 294.21487 124.15885 294.21487 130.50015L294.21487 130.50015L294.21487 148.50015C 294.21487 154.84146 299.37357 160.00015 305.71487 160.00015L305.71487 160.00015L323.71487 160.00015C 330.05618 160.00015 335.21487 154.84146 335.21487 148.50015L335.21487 148.50015L335.21487 130.50015C 335.21487 124.158844 330.05618 119.00015 323.71487 119.00015L323.71487 119.00015L305.71487 119.00015L305.71487 119.00016z" stroke="none" fill="#0E0E0E" fill-rule="nonzero" />
    <path d="M352.71487 119.00016C 346.37357 119.00016 341.21487 124.15885 341.21487 130.50015L341.21487 130.50015L341.21487 148.50015C 341.21487 154.84146 346.37357 160.00015 352.71487 160.00015L352.71487 160.00015L370.71487 160.00015C 377.05618 160.00015 382.21487 154.84146 382.21487 148.50015L382.21487 148.50015L382.21487 130.50015C 382.21487 124.158844 377.05618 119.00015 370.71487 119.00015L370.71487 119.00015L352.71487 119.00015L352.71487 119.00016z" stroke="none" fill="#0E0E0E" fill-rule="nonzero" />
    <path d="M305.71487 165.00015C 299.37357 165.00015 294.21487 170.15884 294.21487 176.50015L294.21487 176.50015L294.21487 194.50015C 294.21487 200.84146 299.37357 206.00015 305.71487 206.00015L305.71487 206.00015L323.71487 206.00015C 330.05618 206.00015 335.21487 200.84146 335.21487 194.50015L335.21487 194.50015L335.21487 176.50015C 335.21487 170.15884 330.05618 165.00015 323.71487 165.00015L323.71487 165.00015L305.71487 165.00015z" stroke="none" fill="#FFFFFF" fill-rule="nonzero" />
	<g>
        <path d="M346.1234 165.00015C 343.41675 165.00015 341.21487 167.20203 341.21487 169.90869L341.21487 169.90869L341.21487 177.59161C 341.21487 180.29828 343.41675 182.50015 346.1234 182.50015L346.1234 182.50015L353.80634 182.50015C 356.513 182.50015 358.71487 180.29828 358.71487 177.59161L358.71487 177.59161L358.71487 169.90869C 358.71487 167.20203 356.513 165.00015 353.80634 165.00015L353.80634 165.00015L346.1234 165.00015z" stroke="none" fill="#FFFFFF" fill-rule="nonzero" />
        <path d="M370.1234 165.00015C 367.41675 165.00015 365.21487 167.20203 365.21487 169.90869L365.21487 169.90869L365.21487 177.59161C 365.21487 180.29828 367.41675 182.50015 370.1234 182.50015L370.1234 182.50015L377.80634 182.50015C 380.513 182.50015 382.71487 180.29828 382.71487 177.59161L382.71487 177.59161L382.71487 169.90869C 382.71487 167.20203 380.513 165.00015 377.80634 165.00015L377.80634 165.00015L370.1234 165.00015z" stroke="none" fill="#FFFFFF" fill-rule="nonzero" />
        <path d="M346.1234 188.00015C 343.41675 188.00015 341.21487 190.20203 341.21487 192.90869L341.21487 192.90869L341.21487 200.59161C 341.21487 203.29828 343.41675 205.50015 346.1234 205.50015L346.1234 205.50015L353.80634 205.50015C 356.513 205.50015 358.71487 203.29828 358.71487 200.59161L358.71487 200.59161L358.71487 192.90869C 358.71487 190.20203 356.513 188.00015 353.80634 188.00015L353.80634 188.00015L346.1234 188.00015z" stroke="none" fill="#FFFFFF" fill-rule="nonzero" />
        <path d="M370.1234 188.00015C 367.41675 188.00015 365.21487 190.20203 365.21487 192.90869L365.21487 192.90869L365.21487 200.59161C 365.21487 203.29828 367.41675 205.50015 370.1234 205.50015L370.1234 205.50015L377.80634 205.50015C 380.513 205.50015 382.71487 203.29828 382.71487 200.59161L382.71487 200.59161L382.71487 192.90869C 382.71487 190.20203 380.513 188.00015 377.80634 188.00015L377.80634 188.00015L370.1234 188.00015z" stroke="none" fill="#FFFFFF" fill-rule="nonzero" />
	</g>
	<g>
        <path d="M498.55136 538.67957C 500.61728 538.80896 501.75903 536.2422 500.19604 534.7462L500.19604 534.7462L500.04056 534.12805C 500.06104 534.07855 500.0816 534.02905 500.10233 533.9797C 502.19156 528.99786 509.27225 529.0322 511.34372 534.0214C 513.1823 538.4496 515.52313 542.8853 516.0995 547.5674C 516.35785 549.63416 516.24164 551.73975 515.783 553.7678C 520.09106 544.35724 522.35815 534.08124 522.35815 523.7471C 522.35815 521.1506 522.216 518.5541 521.9254 515.9641C 521.6864 513.8456 521.357 511.74002 520.9307 509.65378C 518.625 498.3766 513.6322 487.63553 506.4306 478.66415C 502.96863 476.77167 500.08154 473.8135 498.33765 470.26764C 497.71115 468.98874 497.22025 467.613 496.98773 466.21146C 497.3817 466.26312 498.4733 460.2628 498.17615 459.89465C 498.72522 459.0615 499.70792 458.6473 500.3076 457.83432C 503.28992 453.79092 507.39877 454.49692 509.5438 459.99158C 514.12604 462.30423 514.1704 466.13965 511.35873 469.8284C 509.56995 472.17523 509.3242 475.35074 507.75467 477.8632C 507.91617 478.0699 508.0841 478.27014 508.24557 478.47684C 511.20663 482.27472 513.76764 486.35687 515.92664 490.64542C 515.31647 485.8792 516.2173 480.1372 517.75305 476.43582C 519.5012 472.2185 522.77795 468.6667 525.6635 465.0208C 529.1295 460.64157 536.2369 462.55276 536.84753 468.10413C 536.85345 468.15787 536.8592 468.21158 536.86487 468.26532C 536.4363 468.5071 536.01636 468.76398 535.6062 469.03525C 533.2667 470.5825 534.07526 474.2091 536.8473 474.637L536.8473 474.637L536.91003 474.64667C 536.755 476.19034 536.4902 477.7211 536.1027 479.22604C 539.8045 493.54184 531.8126 498.75595 520.40125 498.99017C 520.14935 499.11932 519.9039 499.2485 519.652 499.37128C 520.80817 502.62653 521.7318 505.96576 522.4164 509.3502C 523.02997 512.34064 523.4563 515.36334 523.69525 518.39905C 523.99243 522.2291 523.96655 526.0786 523.64355 529.9023L523.64355 529.9023L523.66296 529.76666C 524.4832 525.55554 526.76965 521.6221 530.08954 518.89636C 535.03516 514.83374 542.02234 513.33765 547.3578 510.0721C 549.92615 508.50015 553.2172 510.53156 552.769 513.5092L552.769 513.5092L552.7472 513.65186C 551.95276 513.97473 551.17773 514.3494 550.42847 514.76917C 549.9999 515.011 549.58 515.2678 549.1698 515.53906C 546.8303 517.08636 547.63885 520.713 550.4109 521.14087L550.4109 521.14087L550.4737 521.1505C 550.5189 521.157 550.5577 521.16345 550.6028 521.17C 549.24 524.4058 547.3411 527.4092 544.96423 529.9992C 542.6496 542.49634 532.7082 543.682 522.07404 540.0427L522.07404 540.0427L522.06757 540.0427C 520.90497 545.1065 519.2063 550.054 517.0232 554.7689L517.0232 554.7689L499.003 554.7689C 498.93835 554.5687 498.88025 554.362 498.8221 554.16174C 500.48853 554.26514 502.16782 554.1682 503.8084 553.86475C 502.4714 552.2242 501.13446 550.5707 499.79745 548.9301C 499.76517 548.8978 499.7393 548.86554 499.71347 548.83325C 499.0353 547.99365 498.35065 547.1604 497.6725 546.3208L497.6725 546.3208L497.67212 546.31976C 497.62967 543.7422 497.93863 541.17316 498.55087 538.67993L498.55087 538.67993L498.55145 538.67957L498.55136 538.67957z" stroke="none" fill="#F2F2F2" fill-rule="nonzero" />
        <path d="M0 554.8225C 0 555.48254 0.53003 556.0125 1.19006 556.0125L1.19006 556.0125L551.48004 556.0125C 552.14 556.0125 552.67004 555.48254 552.67004 554.8225C 552.67004 554.16254 552.14 553.6325 551.48004 553.6325L551.48004 553.6325L1.19006 553.6325C 0.53003 553.6325 0 554.16254 0 554.8225z" stroke="none" fill="#CCCCCC" fill-rule="nonzero" />
	</g>
</g>
</svg>