<?xml version="1.0" standalone="no"?>
<!DOCTYPE svg PUBLIC "-//W3C//DTD SVG 1.0//EN" "http://www.w3.org/TR/2001/REC-SVG-20010904/DTD/svg10.dtd">
<svg xmlns="http://www.w3.org/2000/svg" xmlns:xlink="http://www.w3.org/1999/xlink" id="body_1" width="263" height="223">

<g transform="matrix(0.2997312 0 0 0.2997312 0.07201488 -0)">
    <path transform="matrix(1 0 0 1 -161.51378 -78)"  d="M676.5138 269L650.5138 269C 647.75366 268.99683 645.51697 266.7601 645.5138 264L645.5138 264L645.5138 238C 645.51697 235.23988 647.75366 233.00316 650.5138 233L650.5138 233L676.5138 233C 679.2739 233.00316 681.5106 235.23988 681.5138 238L681.5138 238L681.5138 264C 681.5106 266.7601 679.2739 268.99683 676.5138 269zM650.5138 235C 648.8577 235.00182 647.5156 236.3439 647.5138 238L647.5138 238L647.5138 264C 647.5156 265.65613 648.8577 266.9982 650.5138 267L650.5138 267L676.5138 267C 678.16986 266.9982 679.51196 265.65613 679.5138 264L679.5138 264L679.5138 238C 679.51196 236.3439 678.16986 235.00182 676.5138 235z" stroke="none" fill="#E6E6E6" fill-rule="nonzero" />
    <path transform="matrix(1 0 0 1 -161.51378 -78)"  d="M373.5138 114L347.5138 114C 344.7537 113.99684 342.51697 111.76011 342.5138 109L342.5138 109L342.5138 83C 342.51697 80.23989 344.7537 78.00316 347.5138 78L347.5138 78L373.5138 78C 376.2739 78.00316 378.51062 80.23989 378.5138 83L378.5138 83L378.5138 109C 378.51062 111.76011 376.2739 113.99684 373.5138 114zM347.5138 80C 345.85767 80.00181 344.5156 81.343895 344.5138 83L344.5138 83L344.5138 109C 344.5156 110.656105 345.85767 111.99819 347.5138 112L347.5138 112L373.5138 112C 375.16992 111.99819 376.512 110.656105 376.5138 109L376.5138 109L376.5138 83C 376.512 81.343895 375.16992 80.00181 373.5138 80z" stroke="none" fill="#E6E6E6" fill-rule="nonzero" />
    <path transform="matrix(1 0 0 1 -161.51378 -78)"  d="M660.5138 256L634.5138 256C 631.75366 255.99684 629.51697 253.76012 629.5138 251L629.5138 251L629.5138 225C 629.51697 222.23988 631.75366 220.00316 634.5138 220L634.5138 220L660.5138 220C 663.2739 220.00316 665.5106 222.23988 665.5138 225L665.5138 225L665.5138 251C 665.5106 253.76012 663.2739 255.99684 660.5138 256zM634.5138 222C 632.8577 222.00182 631.5156 223.3439 631.5138 225L631.5138 225L631.5138 251C 631.5156 252.6561 632.8577 253.99818 634.5138 254L634.5138 254L660.5138 254C 662.16986 253.99818 663.51196 252.6561 663.5138 251L663.5138 251L663.5138 225C 663.51196 223.3439 662.16986 222.00182 660.5138 222z" stroke="none" fill="#E6E6E6" fill-rule="nonzero" />
    <path transform="matrix(1 0 0 1 -161.51378 -78)"  d="M208.51378 473L182.51378 473C 179.75366 472.99683 177.51694 470.7601 177.51378 468L177.51378 468L177.51378 442C 177.51694 439.2399 179.75366 437.00317 182.51378 437L182.51378 437L208.51378 437C 211.2739 437.00317 213.51062 439.2399 213.51378 442L213.51378 442L213.51378 468C 213.51062 470.7601 211.2739 472.99683 208.51378 473zM182.51378 439C 180.85768 439.0018 179.5156 440.34387 179.51378 442L179.51378 442L179.51378 468C 179.5156 469.65613 180.85768 470.9982 182.51378 471L182.51378 471L208.51378 471C 210.16988 470.9982 211.51196 469.65613 211.51378 468L211.51378 468L211.51378 442C 211.51196 440.34387 210.16988 439.0018 208.51378 439z" stroke="none" fill="#E6E6E6" fill-rule="nonzero" />
    <path transform="matrix(1 0 0 1 -161.51378 -78)"  d="M192.51378 460L166.51378 460C 163.75366 459.99683 161.51694 457.7601 161.51378 455L161.51378 455L161.51378 429C 161.51694 426.2399 163.75366 424.00317 166.51378 424L166.51378 424L192.51378 424C 195.2739 424.00317 197.51062 426.2399 197.51378 429L197.51378 429L197.51378 455C 197.51062 457.7601 195.2739 459.99683 192.51378 460zM166.51378 426C 164.85768 426.0018 163.5156 427.34387 163.51378 429L163.51378 429L163.51378 455C 163.5156 456.65613 164.85768 457.9982 166.51378 458L166.51378 458L192.51378 458C 194.16988 457.9982 195.51196 456.65613 195.51378 455L195.51378 455L195.51378 429C 195.51196 427.34387 194.16988 426.0018 192.51378 426z" stroke="none" fill="#E6E6E6" fill-rule="nonzero" />
    <path transform="matrix(1 0 0 1 -161.51378 -78)"  d="M253.94313 164.03859L494.55862 164.03859C 518.47375 164.03854 539.1968 180.60962 544.4564 203.93921L544.4564 203.93921L666.03467 743.2065C 668.71893 755.113 666.0047 767.5971 658.619 777.3142C 651.2334 787.0314 639.93134 792.98816 627.74084 793.5888L627.74084 793.5888L380.38647 805.77594C 352.9877 807.1259 328.8388 787.94244 323.956 760.9485L323.956 760.9485L254.98941 379.68048L249.8586 381.14648L236.66246 308.88193L241.94392 307.56155L222.69293 201.136C 221.02348 191.90685 223.55444 182.41385 229.5969 175.24078C 235.63936 168.06772 244.56451 163.96109 253.94313 164.03862L253.94313 164.03862L253.94313 164.03859z" stroke="none" fill="#3F3D56" fill-rule="nonzero" />
    <path transform="matrix(1 0 0 1 -161.51378 -78)"  d="M462.882 175.66377L490.96906 175.66377C 507.58795 175.66379 521.9626 187.24034 525.5052 203.47725L525.5052 203.47725L642.2036 738.3448C 643.5632 744.57635 642.139 751.091 638.3031 756.18677C 634.4672 761.2825 628.60065 764.4531 622.2362 764.8702L622.2362 764.8702L375.68204 781.0292C 361.28146 781.973 348.46756 771.9546 345.9093 757.7517L345.9093 757.7517L246.32983 204.914C 245.02512 197.67035 246.99915 190.22102 251.71982 184.57408C 256.4405 178.92714 263.4219 175.66383 270.7821 175.66383L270.7821 175.66383L297.4271 175.66383C 302.7291 175.66383 307.3714 179.22159 308.74976 184.34125C 309.96664 188.86101 314.06497 192.00189 318.74567 192.00188L318.74567 192.00188L445.23883 192.00188C 454.4852 192.00189 462.17273 184.883 462.88193 175.66382L462.88193 175.66382L462.882 175.66377z" stroke="none" fill="#FFFFFF" fill-rule="nonzero" />
    <path d="M104 188.606L371.476 188.606L399.971 317L129 322L104 188.606L104 188.606" stroke="none" fill="#0E0E0E" fill-rule="nonzero" />
    <path d="M358 431.754L420.971 431.754L422.971 443.809L360 443.809L358 431.754L358 431.754" stroke="none" fill="#0E0E0E" fill-rule="nonzero" />
    <path transform="matrix(0.9997758 -0.021171708 0.021171708 0.9997758 -170.9793 -68.64185)"  d="M303.6674 451.0838L570.79193 451.0838L570.79193 452.34088L303.6674 452.34088z" stroke="none" fill="#2F2E41" fill-rule="nonzero" />
    <path transform="matrix(0.9997334 -0.023088481 0.023088481 0.9997334 -172.68832 -67.64407)"  d="M306.80298 488.47287L578.96735 488.47287L578.96735 489.73L306.80298 489.73z" stroke="none" fill="#2F2E41" fill-rule="nonzero" />
    <path d="M384 560.754L446.971 560.754L448.971 572.809L386 572.809L384 560.754L384 560.754" stroke="none" fill="#0E0E0E" fill-rule="nonzero" />
    <path transform="matrix(0.9997758 -0.021171708 0.021171708 0.9997758 -173.70462 -68.06247)"  d="M329.6674 580.0838L596.79193 580.0838L596.79193 581.3409L329.6674 581.3409z" stroke="none" fill="#2F2E41" fill-rule="nonzero" />
    <path transform="matrix(0.9997334 -0.023088481 0.023088481 0.9997334 -175.6598 -67.00938)"  d="M332.80298 617.4729L604.96735 617.4729L604.96735 618.73004L332.80298 618.73004z" stroke="none" fill="#2F2E41" fill-rule="nonzero" />
    <path d="M615.56 731.207L603.645 731.206L597.977 685.249L615.562 685.25L615.56 731.207L615.56 731.207" stroke="none" fill="#A0616A" fill-rule="nonzero" />
    <path transform="matrix(1 0 0 1 -161.51378 -78)"  d="M780.1121 820.7566L741.6934 820.7552L741.6934 820.2693C 741.69403 812.0109 748.3887 805.3164 756.64703 805.3159L756.64703 805.3159L756.648 805.3159L780.11285 805.3169L780.1121 820.7566z" stroke="none" fill="#2F2E41" fill-rule="nonzero" />
    <path d="M763.576 723.405L751.979 726.136L735.926 682.702L753.043 678.671L763.576 723.405L763.576 723.405" stroke="none" fill="#A0616A" fill-rule="nonzero" />
    <path transform="matrix(1 0 0 1 -161.51378 -78)"  d="M930.69543 811.95074L893.29956 820.7566L893.1882 820.28357C 891.29553 812.245 896.2773 804.19403 904.3156 802.3004L904.3156 802.3004L904.3165 802.3002L927.1567 796.92194L930.69543 811.95074z" stroke="none" fill="#2F2E41" fill-rule="nonzero" />
    <path transform="matrix(1 0 0 1 -161.51378 -78)"  d="M774.639 615.36633C 774.66156 612.9712 775.371 556.45087 790.8639 535.07996L790.8639 535.07996L791.093 534.76465L845.085 542.2133L843.87756 554.076C 846.2524 556.386 864.93256 575.9058 870.3267 622.1297L870.3267 622.1297L927.63464 776.04456L900.99255 778.46643L822.12726 610.4489L780.3921 793.0841L753.9807 793.0841L774.639 615.36633z" stroke="none" fill="#2F2E41" fill-rule="nonzero" />
    <path transform="matrix(1 0 0 1 -161.51378 -78)"  d="M784.5388 537.165L789.8167 509.45657C 788.7837 508.12677 784.2057 501.73965 785.22473 494.25287C 785.8893 489.36847 788.8051 485.0854 793.8926 481.51935L793.8926 481.51935L807.5726 449.59906L807.7569 449.491C 808.6783 448.94815 830.4595 436.35318 842.3339 448.2362C 842.6308 448.4663 871.8673 471.67426 860.12665 502.98175L860.12665 502.98175L845.633 546.4672L784.5388 537.165z" stroke="none" fill="#CCCCCC" fill-rule="nonzero" />
    <path transform="matrix(1 0 0 1 -161.51378 -78)"  d="M766.1765 574.652C 769.05743 574.3227 771.6446 572.73425 773.24176 570.314C 774.83887 567.8938 775.28204 564.8905 774.4519 562.1121L774.4519 562.1121L802.70264 541.758L785.7907 535.3253L761.55615 555.64014C 756.8784 557.3823 754.243 562.3479 755.4218 567.19836C 756.6006 572.04877 761.2209 575.251 766.1765 574.65204L766.1765 574.65204L766.1765 574.652z" stroke="none" fill="#A0616A" fill-rule="nonzero" />
    <path transform="matrix(1 0 0 1 -161.51378 -78)"  d="M771.3686 541.72516L814.4987 507.74405L801.6765 463.93567C 800.45483 459.74255 801.03033 455.23032 803.2653 451.478C 805.3353 447.93948 808.8013 445.43774 812.81165 444.58743C 820.1951 443.025 826.8979 447.1593 832.72876 456.87726L832.72876 456.87726L832.77325 456.96497C 833.73785 459.32327 856.20685 514.86597 839.0504 526.7439C 822.2677 538.3625 783.3511 555.2761 782.9598 555.4465L782.9598 555.4465L782.50336 555.64355L771.3686 541.72516z" stroke="none" fill="#CCCCCC" fill-rule="nonzero" />
    <path d="M693.3045 332.5559C 693.3045 339.77087 690.75366 345.9292 685.65186 351.03094C 680.5502 356.1327 674.3918 358.68356 667.1768 358.68356C 659.96185 358.68356 653.8035 356.1327 648.7018 351.03094C 643.60004 345.9292 641.04913 339.77087 641.04913 332.5559C 641.04913 325.34097 643.60004 319.18262 648.7018 314.08087C 653.8035 308.97913 659.96185 306.42825 667.1768 306.42825C 674.3918 306.42825 680.5502 308.97913 685.65186 314.08087C 690.75366 319.18262 693.3045 325.34097 693.3045 332.5559C 693.3045 332.85995 693.2992 333.16388 693.2886 333.46774" stroke="none" fill="#A0616A" fill-rule="nonzero" />
    <path d="M731.25305 300.11435C 731.25305 306.4972 728.99634 311.9453 724.483 316.45865C 719.9696 320.97205 714.52155 323.2287 708.1387 323.2287C 701.75586 323.2287 696.30774 320.97205 691.7944 316.45865C 687.281 311.9453 685.0243 306.4972 685.0243 300.11435C 685.0243 293.7315 687.281 288.28342 691.7944 283.77005C 696.30774 279.25668 701.75586 277 708.1387 277C 714.52155 277 719.9696 279.25668 724.483 283.77005C 728.99634 288.28342 731.25305 293.7315 731.25305 300.11435C 731.25305 300.38333 731.24835 300.65222 731.23895 300.92102" stroke="none" fill="#2F2E41" fill-rule="nonzero" />
    <path transform="matrix(1 0 0 1 -161.51378 -78)"  d="M889.5898 397.25452C 883.5192 401.64206 875.6991 402.8163 868.6077 400.40506C 861.51636 397.99384 856.03284 392.29608 853.8951 385.11752C 854.9822 393.7616 860.837 401.06024 869.0394 403.9965C 877.2419 406.93274 886.3985 405.0078 892.7243 399.01733C 899.0502 393.0269 901.4705 383.9886 898.985 375.63852C 900.0396 384.0195 896.4371 392.30807 889.5898 397.25452z" stroke="none" fill="#2F2E41" fill-rule="nonzero" />
    <path transform="matrix(1 0 0 1 -161.51378 -78)"  d="M798.37036 397.2802C 802.4055 390.0561 803.9495 387.0384 809.1524 382.6455C 813.7533 378.76044 819.4126 377.6195 823.9773 381.3007C 835.0659 376.50964 847.98456 379.56442 855.75305 388.81448C 863.52155 398.06454 864.298 411.3167 857.66284 421.41068C 851.0277 431.50464 838.55426 436.04715 826.98193 432.5838C 815.4096 429.12048 807.4823 418.4725 807.4832 406.39304C 807.4873 405.36005 807.5495 404.32806 807.6695 403.30203C 803.7016 402.7448 802.33813 397.83743 798.37036 397.2802z" stroke="none" fill="#2F2E41" fill-rule="nonzero" />
    <path transform="matrix(1 0 0 1 -161.51378 -78)"  d="M1037.4862 822L656.4862 822C 655.9339 822 655.4862 821.5523 655.4862 821C 655.4862 820.4477 655.9339 820 656.4862 820L656.4862 820L1037.4862 820C 1038.0385 820 1038.4862 820.4477 1038.4862 821C 1038.4862 821.5523 1038.0385 822 1037.4862 822z" stroke="none" fill="#3F3D56" fill-rule="nonzero" />
</g>
</svg>