<svg id="eX3ws7iYaxM1" xmlns="http://www.w3.org/2000/svg" xmlns:xlink="http://www.w3.org/1999/xlink" viewBox="0 0 600 600" shape-rendering="geometricPrecision" text-rendering="geometricPrecision" style="background-color:#fff"><rect width="600" height="600" rx="0" ry="0" fill="#0e0e0e" stroke-width="0"/><path d="M203.406802,303.935758l-41.21521-41.170987c-22.723143-22.700348-59.542473-22.700348-82.266673,0v0c-22.755892,22.730982-22.755892,59.610992,0,82.341975v0c22.7242,22.700348,59.54353,22.700348,82.266673,0l41.21521-41.170988Zm0,0l64.652513-64.583329c24.748353-24.722241,64.849011-24.722241,89.597365,0l64.652513,64.583329m-218.902391,0l64.652513,64.583329c24.748353,24.722242,64.849011,24.722242,89.597365,0l64.652513-64.583329m0,0l41.21521-41.170987c22.723143-22.700348,59.542473-22.700348,82.266672,0v0c22.755892,22.730982,22.755892,59.610992,0,82.341975v0c-22.724199,22.700348-59.543529,22.700348-82.266672,0l-41.21521-41.170988Z" transform="translate(-12.858017-3.935752)" fill="none" stroke="#fff" stroke-width="39"/></svg>
