<svg cache-id="b898809ae273440c845334645abd41bb" id="ezeWAm0f2yr1" xmlns="http://www.w3.org/2000/svg" xmlns:xlink="http://www.w3.org/1999/xlink" viewBox="0 0 600 600" shape-rendering="geometricPrecision" text-rendering="geometricPrecision" style="background-color:#f6f6f6"><rect width="1000" height="1000" rx="0" ry="0" transform="translate(-149.487555-58.565154)" fill="#f6f6f6" stroke-width="0"/><path d="M217.461683,312.250752l-45.336732-45.289321c-24.995457-24.971064-65.49672-24.971064-90.49334,0v0c-25.031482,25.004762-25.031482,65.57388,0,90.578643v0c24.99662,24.971064,65.497883,24.971064,90.49334,0l45.336732-45.289322Zm0,0l71.117764-71.0436c27.223189-27.195207,71.333913-27.195207,98.557102,0l71.117764,71.0436m-240.79263,0l71.117764,71.0436c27.223189,27.195208,71.333913,27.195208,98.557102,0l71.117764-71.0436m0,0l45.336732-45.289321c24.995457-24.971064,65.49672-24.971064,90.493339,0v0c25.031482,25.004762,25.031482,65.57388,0,90.578643v0c-24.996619,24.971064-65.497882,24.971064-90.493339,0l-45.336732-45.289322Z" transform="translate(-37.857987-12.250698)" fill="none" stroke="#434343" stroke-width="39"/></svg>
