<svg id="ej4y6RVW3Oz1" xmlns="http://www.w3.org/2000/svg" xmlns:xlink="http://www.w3.org/1999/xlink"
    viewBox="0 0 600 600" shape-rendering="geometricPrecision" text-rendering="geometricPrecision">
    <rect width="1000" height="1000" rx="0" ry="0" transform="translate(-149.487555-58.565154)" fill="#f6f6f6"
        stroke-width="0" />
    <path
        d="M217.461683,312.250752l-50.443911-33.559856c-29.855572-11.729465-60.389541-24.971064-85.386161,0v0c-25.031482,25.004762-32.529322,74.51381-7.49784,99.518573v0c24.99662,24.971064,85.143667,27.644047,102.835858-5.52881l40.492054-60.429907Zm0,0l63.449565-84.424903c23.221-32.067096,93.30486-27.195207,120.528049,0l56.815016,84.424903m-240.79263,0l63.449565,51.583812c27.223189,27.195208,76.718432,36.041303,103.941621,8.846095l73.401444-60.429907m0,0l45.336732-33.559856c24.995457-24.971064,65.49672-36.700529,90.493339-11.729465v0c25.031482,25.004762,29.212015,71.868369,4.180533,96.873132v.000001c-24.996619,24.971064-69.678415,24.971064-94.673872,0l-45.336732-51.583812Z"
        transform="matrix(.882727 0 0 0.882727 1.763633 24.367814)" fill="none" stroke="#434343" stroke-width="39" />
</svg>